<?xml version="1.0" encoding="UTF-8" standalone="no"?>
<!DOCTYPE svg PUBLIC "-//W3C//DTD SVG 1.1//EN" "http://www.w3.org/Graphics/SVG/1.1/DTD/svg11.dtd">
<svg width="960.00" height="540.00" viewBox="0.00 0.00 1920.00 1080.00" xmlns="http://www.w3.org/2000/svg" xmlns:xlink="http://www.w3.org/1999/xlink">
<g stroke-linecap="round" id="Layer_1">
<path d="M1167.95,1087.36" fill="none" stroke="rgb(8, 8, 8)" stroke-width="10.00" stroke-opacity="1.00" stroke-linejoin="round"/>
<path d="M1167.95,1087.36 L1361.24,995.83" fill="none" stroke="rgb(8, 8, 8)" stroke-width="10.00" stroke-opacity="1.00" stroke-linejoin="round"/>
<path d="M1361.24,995.83" fill="none" stroke="rgb(8, 8, 8)" stroke-width="10.00" stroke-opacity="1.00" stroke-linejoin="round"/>
<path d="M1342.80,1003.35" fill="none" stroke="rgb(8, 8, 8)" stroke-width="10.00" stroke-opacity="1.00" stroke-linejoin="round"/>
<path d="M1342.80,1003.35 L1292.94,978.76" fill="none" stroke="rgb(8, 8, 8)" stroke-width="10.00" stroke-opacity="1.00" stroke-linejoin="round"/>
<path d="M1292.94,978.76" fill="none" stroke="rgb(8, 8, 8)" stroke-width="10.00" stroke-opacity="1.00" stroke-linejoin="round"/>
<path d="M1292.94,978.76 L1847.55,715.80" fill="none" stroke="rgb(8, 8, 8)" stroke-width="10.00" stroke-opacity="1.00" stroke-linejoin="round"/>
<path d="M1847.55,715.80" fill="none" stroke="rgb(8, 8, 8)" stroke-width="10.00" stroke-opacity="1.00" stroke-linejoin="round"/>
<path d="M1335.97,1004.03" fill="none" stroke="rgb(8, 8, 8)" stroke-width="10.00" stroke-opacity="1.00" stroke-linejoin="round"/>
<path d="M1335.97,1004.03 L1166.59,1081.89" fill="none" stroke="rgb(8, 8, 8)" stroke-width="10.00" stroke-opacity="1.00" stroke-linejoin="round"/>
<path d="M1166.59,1081.89 C1166.59,1081.89 1166.59,1082.58 1166.59,1082.58" fill="none" stroke="rgb(8, 8, 8)" stroke-width="10.00" stroke-opacity="1.00" stroke-linejoin="round"/>
<path d="M1292.26,986.95" fill="none" stroke="rgb(8, 8, 8)" stroke-width="10.00" stroke-opacity="1.00" stroke-linejoin="round"/>
<path d="M1292.26,986.95 L1339.39,1004.71" fill="none" stroke="rgb(8, 8, 8)" stroke-width="10.00" stroke-opacity="1.00" stroke-linejoin="round"/>
<path d="M1339.39,1004.71" fill="none" stroke="rgb(8, 8, 8)" stroke-width="10.00" stroke-opacity="1.00" stroke-linejoin="round"/>
<path d="M1289.53,981.49" fill="none" stroke="rgb(8, 8, 8)" stroke-width="10.00" stroke-opacity="1.00" stroke-linejoin="round"/>
<path d="M1304.90,1000.96" fill="none" stroke="rgb(255, 255, 255)" stroke-width="10.00" stroke-opacity="1.00" stroke-linejoin="round"/>
<path d="M1304.90,1000.96 L1265.97,983.88" fill="none" stroke="rgb(255, 255, 255)" stroke-width="10.00" stroke-opacity="1.00" stroke-linejoin="round"/>
<path d="M1265.97,983.88" fill="none" stroke="rgb(255, 255, 255)" stroke-width="10.00" stroke-opacity="1.00" stroke-linejoin="round"/>
<path d="M1265.97,983.88 L1331.19,953.49" fill="none" stroke="rgb(255, 255, 255)" stroke-width="10.00" stroke-opacity="1.00" stroke-linejoin="round"/>
<path d="M1331.19,953.49" fill="none" stroke="rgb(255, 255, 255)" stroke-width="10.00" stroke-opacity="1.00" stroke-linejoin="round"/>
<path d="M1331.19,953.49 L1258.45,995.15" fill="none" stroke="rgb(255, 255, 255)" stroke-width="10.00" stroke-opacity="1.00" stroke-linejoin="round"/>
<path d="M1258.45,995.15" fill="none" stroke="rgb(255, 255, 255)" stroke-width="10.00" stroke-opacity="1.00" stroke-linejoin="round"/>
<path d="M1279.28,984.56" fill="none" stroke="rgb(255, 255, 255)" stroke-width="10.00" stroke-opacity="1.00" stroke-linejoin="round"/>
<path d="M1279.28,984.56 L1302.85,997.54" fill="none" stroke="rgb(255, 255, 255)" stroke-width="10.00" stroke-opacity="1.00" stroke-linejoin="round"/>
<path d="M1302.85,997.54" fill="none" stroke="rgb(255, 255, 255)" stroke-width="10.00" stroke-opacity="1.00" stroke-linejoin="round"/>
<path d="M1302.85,997.54 L1324.36,1004.37" fill="none" stroke="rgb(255, 255, 255)" stroke-width="10.00" stroke-opacity="1.00" stroke-linejoin="round"/>
<path d="M1324.36,1004.37" fill="none" stroke="rgb(255, 255, 255)" stroke-width="10.00" stroke-opacity="1.00" stroke-linejoin="round"/>
<path d="M1309.34,1016.32" fill="none" stroke="rgb(8, 8, 8)" stroke-width="10.00" stroke-opacity="1.00" stroke-linejoin="round"/>
<path d="M1309.34,1016.32 L1351.00,999.59" fill="none" stroke="rgb(8, 8, 8)" stroke-width="10.00" stroke-opacity="1.00" stroke-linejoin="round"/>
<path d="M1351.00,999.59" fill="none" stroke="rgb(8, 8, 8)" stroke-width="10.00" stroke-opacity="1.00" stroke-linejoin="round"/>
<path d="M1337.00,1001.30" fill="none" stroke="rgb(8, 8, 8)" stroke-width="10.00" stroke-opacity="1.00" stroke-linejoin="round"/>
<path d="M1337.00,1001.30 L1303.19,986.61" fill="none" stroke="rgb(8, 8, 8)" stroke-width="10.00" stroke-opacity="1.00" stroke-linejoin="round"/>
<path d="M1303.19,986.61" fill="none" stroke="rgb(8, 8, 8)" stroke-width="10.00" stroke-opacity="1.00" stroke-linejoin="round"/>
<path d="M1303.53,985.93 C1303.53,985.93 1303.87,985.93 1303.87,985.93" fill="none" stroke="rgb(8, 8, 8)" stroke-width="10.00" stroke-opacity="1.00" stroke-linejoin="round"/>
<path d="M1303.87,985.93 L1352.37,1008.81" fill="none" stroke="rgb(8, 8, 8)" stroke-width="10.00" stroke-opacity="1.00" stroke-linejoin="round"/>
<path d="M1352.37,1008.81 C1352.37,1008.81 1352.02,1008.81 1352.02,1008.81" fill="none" stroke="rgb(8, 8, 8)" stroke-width="10.00" stroke-opacity="1.00" stroke-linejoin="round"/>
<path d="M1343.83,1009.49" fill="none" stroke="rgb(8, 8, 8)" stroke-width="10.00" stroke-opacity="1.00" stroke-linejoin="round"/>
<path d="M1343.83,1009.49 L1302.16,984.56" fill="none" stroke="rgb(8, 8, 8)" stroke-width="10.00" stroke-opacity="1.00" stroke-linejoin="round"/>
<path d="M1302.16,984.56" fill="none" stroke="rgb(8, 8, 8)" stroke-width="10.00" stroke-opacity="1.00" stroke-linejoin="round"/>
<path d="M1305.58,987.30 C1305.58,987.30 1305.92,987.30 1305.92,987.30" fill="none" stroke="rgb(8, 8, 8)" stroke-width="10.00" stroke-opacity="1.00" stroke-linejoin="round"/>
<path d="M1305.92,987.30 L1349.29,1012.91" fill="none" stroke="rgb(8, 8, 8)" stroke-width="10.00" stroke-opacity="1.00" stroke-linejoin="round"/>
<path d="M1349.29,1012.91 C1349.29,1012.91 1349.12,1013.25 1349.12,1013.25 C1349.12,1013.25 1348.61,1013.25 1348.61,1013.25" fill="none" stroke="rgb(8, 8, 8)" stroke-width="10.00" stroke-opacity="1.00" stroke-linejoin="round"/>
<path d="M1301.82,983.20" fill="none" stroke="rgb(8, 8, 8)" stroke-width="10.00" stroke-opacity="1.00" stroke-linejoin="round"/>
<path d="M1300.28,984.02" fill="none" stroke="rgb(8, 8, 8)" stroke-width="10.00" stroke-opacity="1.00" stroke-linejoin="round"/>
<path d="M1300.28,984.02 L1753.17,766.94" fill="none" stroke="rgb(8, 8, 8)" stroke-width="10.00" stroke-opacity="1.00" stroke-linejoin="round"/>
<path d="M1753.17,766.94" fill="none" stroke="rgb(8, 8, 8)" stroke-width="10.00" stroke-opacity="1.00" stroke-linejoin="round"/>
<path d="M1753.17,766.94 L1967.08,665.94" fill="none" stroke="rgb(8, 8, 8)" stroke-width="10.00" stroke-opacity="1.00" stroke-linejoin="round"/>
<path d="M1967.08,665.94" fill="none" stroke="rgb(8, 8, 8)" stroke-width="10.00" stroke-opacity="1.00" stroke-linejoin="round"/>
<path d="M1928.15,678.23" fill="none" stroke="rgb(8, 8, 8)" stroke-width="10.00" stroke-opacity="1.00" stroke-linejoin="round"/>
<path d="M1928.15,678.23 L1810.33,730.48" fill="none" stroke="rgb(8, 8, 8)" stroke-width="10.00" stroke-opacity="1.00" stroke-linejoin="round"/>
<path d="M1810.33,730.48" fill="none" stroke="rgb(8, 8, 8)" stroke-width="10.00" stroke-opacity="1.00" stroke-linejoin="round"/>
<path d="M1292.94,973.29 C1292.94,973.29 1293.97,973.29 1293.97,973.29" fill="none" stroke="rgb(255, 255, 255)" stroke-width="10.00" stroke-opacity="1.00" stroke-linejoin="round"/>
<path d="M1293.97,973.29 L1994.74,635.20" fill="none" stroke="rgb(255, 255, 255)" stroke-width="10.00" stroke-opacity="1.00" stroke-linejoin="round"/>
<path d="M1994.74,635.20" fill="none" stroke="rgb(255, 255, 255)" stroke-width="10.00" stroke-opacity="1.00" stroke-linejoin="round"/>
<path d="M1170.00,1081.33" fill="none" stroke="rgb(8, 8, 8)" stroke-width="10.00" stroke-opacity="1.00" stroke-linejoin="round"/>
<path d="M1170.00,1081.33 L1927.30,1080.93" fill="none" stroke="rgb(8, 8, 8)" stroke-width="10.00" stroke-opacity="1.00" stroke-linejoin="round"/>
<path d="M1927.30,1080.93" fill="none" stroke="rgb(8, 8, 8)" stroke-width="10.00" stroke-opacity="1.00" stroke-linejoin="round"/>
<path d="M1927.30,1080.93 L1927.30,676.27" fill="none" stroke="rgb(8, 8, 8)" stroke-width="10.00" stroke-opacity="1.00" stroke-linejoin="round"/>
<path d="M1927.30,676.27" fill="none" stroke="rgb(8, 8, 8)" stroke-width="10.00" stroke-opacity="1.00" stroke-linejoin="round"/>
<path d="M1210.74,1075.21" fill="none" stroke="rgb(8, 8, 8)" stroke-width="30.00" stroke-opacity="1.00" stroke-linejoin="round"/>
<path d="M1210.74,1075.21 L1916.53,1069.42" fill="none" stroke="rgb(8, 8, 8)" stroke-width="30.00" stroke-opacity="1.00" stroke-linejoin="round"/>
<path d="M1916.53,1069.42" fill="none" stroke="rgb(8, 8, 8)" stroke-width="30.00" stroke-opacity="1.00" stroke-linejoin="round"/>
<path d="M1916.53,1069.42 L1920.66,696.69" fill="none" stroke="rgb(8, 8, 8)" stroke-width="30.00" stroke-opacity="1.00" stroke-linejoin="round"/>
<path d="M1920.66,696.69" fill="none" stroke="rgb(8, 8, 8)" stroke-width="30.00" stroke-opacity="1.00" stroke-linejoin="round"/>
<path d="M1920.66,696.69 L1326.45,985.12" fill="none" stroke="rgb(8, 8, 8)" stroke-width="30.00" stroke-opacity="1.00" stroke-linejoin="round"/>
<path d="M1326.45,985.12" fill="none" stroke="rgb(8, 8, 8)" stroke-width="30.00" stroke-opacity="1.00" stroke-linejoin="round"/>
<path d="M1326.45,985.12 L1410.74,1019.01" fill="none" stroke="rgb(8, 8, 8)" stroke-width="30.00" stroke-opacity="1.00" stroke-linejoin="round"/>
<path d="M1410.74,1019.01" fill="none" stroke="rgb(8, 8, 8)" stroke-width="30.00" stroke-opacity="1.00" stroke-linejoin="round"/>
<path d="M1242.15,1059.50" fill="none" stroke="rgb(8, 8, 8)" stroke-width="30.00" stroke-opacity="1.00" stroke-linejoin="round"/>
<path d="M1242.15,1059.50 L1403.31,1003.31" fill="none" stroke="rgb(8, 8, 8)" stroke-width="30.00" stroke-opacity="1.00" stroke-linejoin="round"/>
<path d="M1403.31,1003.31" fill="none" stroke="rgb(8, 8, 8)" stroke-width="30.00" stroke-opacity="1.00" stroke-linejoin="round"/>
<path d="M1403.31,1003.31 L1280.17,1064.46" fill="none" stroke="rgb(8, 8, 8)" stroke-width="30.00" stroke-opacity="1.00" stroke-linejoin="round"/>
<path d="M1280.17,1064.46 C1280.17,1064.46 1282.64,1063.64 1282.64,1063.64" fill="none" stroke="rgb(8, 8, 8)" stroke-width="30.00" stroke-opacity="1.00" stroke-linejoin="round"/>
<path d="M1282.64,1063.64 L1902.48,1053.72" fill="none" stroke="rgb(8, 8, 8)" stroke-width="30.00" stroke-opacity="1.00" stroke-linejoin="round"/>
<path d="M1902.48,1053.31 C1902.48,1053.31 1901.65,1052.07 1901.65,1052.07" fill="none" stroke="rgb(8, 8, 8)" stroke-width="30.00" stroke-opacity="1.00" stroke-linejoin="round"/>
<path d="M1901.65,1052.07 L1900.83,723.97" fill="none" stroke="rgb(8, 8, 8)" stroke-width="30.00" stroke-opacity="1.00" stroke-linejoin="round"/>
<path d="M1900.83,723.97" fill="none" stroke="rgb(8, 8, 8)" stroke-width="30.00" stroke-opacity="1.00" stroke-linejoin="round"/>
<path d="M1900.83,723.97 L1368.60,980.99" fill="none" stroke="rgb(8, 8, 8)" stroke-width="30.00" stroke-opacity="1.00" stroke-linejoin="round"/>
<path d="M1368.60,981.40 C1368.60,981.40 1369.42,981.82 1369.42,981.82" fill="none" stroke="rgb(8, 8, 8)" stroke-width="30.00" stroke-opacity="1.00" stroke-linejoin="round"/>
<path d="M1369.42,981.82 L1414.88,996.69" fill="none" stroke="rgb(8, 8, 8)" stroke-width="30.00" stroke-opacity="1.00" stroke-linejoin="round"/>
<path d="M1414.88,996.69 C1414.88,996.69 1414.88,997.52 1414.88,997.52" fill="none" stroke="rgb(8, 8, 8)" stroke-width="30.00" stroke-opacity="1.00" stroke-linejoin="round"/>
<path d="M1414.88,997.52 L1349.59,1055.37" fill="none" stroke="rgb(8, 8, 8)" stroke-width="30.00" stroke-opacity="1.00" stroke-linejoin="round"/>
<path d="M1349.59,1055.79 C1349.59,1055.79 1348.76,1056.20 1348.76,1056.20" fill="none" stroke="rgb(8, 8, 8)" stroke-width="30.00" stroke-opacity="1.00" stroke-linejoin="round"/>
<path d="M1348.76,1056.20 L1890.08,1028.93" fill="none" stroke="rgb(8, 8, 8)" stroke-width="30.00" stroke-opacity="1.00" stroke-linejoin="round"/>
<path d="M1890.08,1028.93 C1890.08,1028.93 1890.08,1027.27 1890.08,1027.27" fill="none" stroke="rgb(8, 8, 8)" stroke-width="30.00" stroke-opacity="1.00" stroke-linejoin="round"/>
<path d="M1890.08,1027.27 L1880.17,745.45" fill="none" stroke="rgb(8, 8, 8)" stroke-width="30.00" stroke-opacity="1.00" stroke-linejoin="round"/>
<path d="M1880.17,745.45" fill="none" stroke="rgb(8, 8, 8)" stroke-width="30.00" stroke-opacity="1.00" stroke-linejoin="round"/>
<path d="M1880.17,745.45 L1391.74,979.34" fill="none" stroke="rgb(8, 8, 8)" stroke-width="30.00" stroke-opacity="1.00" stroke-linejoin="round"/>
<path d="M1391.74,979.34" fill="none" stroke="rgb(8, 8, 8)" stroke-width="30.00" stroke-opacity="1.00" stroke-linejoin="round"/>
<path d="M1391.74,979.34 L1402.48,1054.55" fill="none" stroke="rgb(8, 8, 8)" stroke-width="30.00" stroke-opacity="1.00" stroke-linejoin="round"/>
<path d="M1402.48,1054.55 C1402.50,1053.62 1402.44,1052.56 1402.48,1052.48 C1402.67,1052.14 1403.56,1051.36 1404.13,1050.41" fill="none" stroke="rgb(8, 8, 8)" stroke-width="30.00" stroke-opacity="1.00" stroke-linejoin="round"/>
<path d="M1404.13,1050.41 L1448.76,952.07" fill="none" stroke="rgb(8, 8, 8)" stroke-width="30.00" stroke-opacity="1.00" stroke-linejoin="round"/>
<path d="M1448.76,952.07" fill="none" stroke="rgb(8, 8, 8)" stroke-width="30.00" stroke-opacity="1.00" stroke-linejoin="round"/>
<path d="M1448.76,952.07 L1404.96,993.39" fill="none" stroke="rgb(8, 8, 8)" stroke-width="30.00" stroke-opacity="1.00" stroke-linejoin="round"/>
<path d="M1404.96,993.39 C1404.96,993.39 1406.61,993.39 1406.61,993.39" fill="none" stroke="rgb(8, 8, 8)" stroke-width="30.00" stroke-opacity="1.00" stroke-linejoin="round"/>
<path d="M1406.61,993.39 L1879.34,768.60" fill="none" stroke="rgb(8, 8, 8)" stroke-width="30.00" stroke-opacity="1.00" stroke-linejoin="round"/>
<path d="M1879.34,768.60" fill="none" stroke="rgb(8, 8, 8)" stroke-width="30.00" stroke-opacity="1.00" stroke-linejoin="round"/>
<path d="M1879.34,768.60 L1408.26,1011.57" fill="none" stroke="rgb(8, 8, 8)" stroke-width="30.00" stroke-opacity="1.00" stroke-linejoin="round"/>
<path d="M1408.26,1011.57 C1408.26,1011.57 1409.09,1011.57 1409.09,1011.57" fill="none" stroke="rgb(8, 8, 8)" stroke-width="30.00" stroke-opacity="1.00" stroke-linejoin="round"/>
<path d="M1409.09,1011.57 L1527.27,1021.49" fill="none" stroke="rgb(8, 8, 8)" stroke-width="30.00" stroke-opacity="1.00" stroke-linejoin="round"/>
<path d="M1527.27,1021.49 C1527.27,1021.49 1527.27,1022.31 1527.27,1022.31" fill="none" stroke="rgb(8, 8, 8)" stroke-width="30.00" stroke-opacity="1.00" stroke-linejoin="round"/>
<path d="M1527.27,1022.31 L1425.62,1034.71" fill="none" stroke="rgb(8, 8, 8)" stroke-width="30.00" stroke-opacity="1.00" stroke-linejoin="round"/>
<path d="M1425.62,1034.71" fill="none" stroke="rgb(8, 8, 8)" stroke-width="30.00" stroke-opacity="1.00" stroke-linejoin="round"/>
<path d="M1425.62,1034.71 L1883.47,1004.96" fill="none" stroke="rgb(8, 8, 8)" stroke-width="30.00" stroke-opacity="1.00" stroke-linejoin="round"/>
<path d="M1883.47,1004.96 C1883.47,1004.96 1884.30,1004.55 1884.30,1004.55 C1884.32,1003.28 1884.25,1002.12 1884.30,1002.07 C1884.54,1001.76 1885.25,1000.84 1885.12,999.17" fill="none" stroke="rgb(8, 8, 8)" stroke-width="30.00" stroke-opacity="1.00" stroke-linejoin="round"/>
<path d="M1885.12,999.17 L1858.68,789.26" fill="none" stroke="rgb(8, 8, 8)" stroke-width="30.00" stroke-opacity="1.00" stroke-linejoin="round"/>
<path d="M1858.68,789.26" fill="none" stroke="rgb(8, 8, 8)" stroke-width="30.00" stroke-opacity="1.00" stroke-linejoin="round"/>
<path d="M1858.68,789.26 L1453.72,1004.13" fill="none" stroke="rgb(8, 8, 8)" stroke-width="30.00" stroke-opacity="1.00" stroke-linejoin="round"/>
<path d="M1453.72,1004.13 C1453.72,1004.13 1454.55,1004.13 1454.55,1004.13" fill="none" stroke="rgb(8, 8, 8)" stroke-width="30.00" stroke-opacity="1.00" stroke-linejoin="round"/>
<path d="M1454.55,1004.13 L1883.47,985.95" fill="none" stroke="rgb(8, 8, 8)" stroke-width="30.00" stroke-opacity="1.00" stroke-linejoin="round"/>
<path d="M1883.47,985.95 C1883.47,985.95 1883.47,985.12 1883.47,985.12" fill="none" stroke="rgb(8, 8, 8)" stroke-width="30.00" stroke-opacity="1.00" stroke-linejoin="round"/>
<path d="M1883.47,985.12 L1830.58,802.48" fill="none" stroke="rgb(8, 8, 8)" stroke-width="30.00" stroke-opacity="1.00" stroke-linejoin="round"/>
<path d="M1830.58,802.48" fill="none" stroke="rgb(8, 8, 8)" stroke-width="30.00" stroke-opacity="1.00" stroke-linejoin="round"/>
<path d="M1830.58,802.48 L1528.10,981.82" fill="none" stroke="rgb(8, 8, 8)" stroke-width="30.00" stroke-opacity="1.00" stroke-linejoin="round"/>
<path d="M1528.10,982.23 C1528.10,982.23 1528.93,982.64 1528.93,982.64" fill="none" stroke="rgb(8, 8, 8)" stroke-width="30.00" stroke-opacity="1.00" stroke-linejoin="round"/>
<path d="M1528.93,982.64 L1905.79,966.94" fill="none" stroke="rgb(8, 8, 8)" stroke-width="30.00" stroke-opacity="1.00" stroke-linejoin="round"/>
<path d="M1905.79,966.53 C1905.44,966.21 1903.78,961.63 1902.07,959.50 C1901.70,959.05 1900.55,957.95 1900.00,957.02" fill="none" stroke="rgb(8, 8, 8)" stroke-width="30.00" stroke-opacity="1.00" stroke-linejoin="round"/>
<path d="M1900.00,957.02 L1809.09,818.18" fill="none" stroke="rgb(8, 8, 8)" stroke-width="30.00" stroke-opacity="1.00" stroke-linejoin="round"/>
<path d="M1808.68,818.18 C1808.68,818.18 1807.44,819.83 1807.44,819.83" fill="none" stroke="rgb(8, 8, 8)" stroke-width="30.00" stroke-opacity="1.00" stroke-linejoin="round"/>
<path d="M1807.44,819.83 L1588.43,975.21" fill="none" stroke="rgb(8, 8, 8)" stroke-width="30.00" stroke-opacity="1.00" stroke-linejoin="round"/>
<path d="M1588.43,975.21" fill="none" stroke="rgb(8, 8, 8)" stroke-width="30.00" stroke-opacity="1.00" stroke-linejoin="round"/>
<path d="M1588.43,975.21 L1870.25,947.93" fill="none" stroke="rgb(8, 8, 8)" stroke-width="30.00" stroke-opacity="1.00" stroke-linejoin="round"/>
<path d="M1870.25,947.93 C1870.25,947.93 1871.07,947.52 1871.07,947.52 C1871.07,947.52 1871.07,943.80 1871.07,943.80" fill="none" stroke="rgb(8, 8, 8)" stroke-width="30.00" stroke-opacity="1.00" stroke-linejoin="round"/>
<path d="M1871.07,943.80 L1795.04,836.36" fill="none" stroke="rgb(8, 8, 8)" stroke-width="30.00" stroke-opacity="1.00" stroke-linejoin="round"/>
<path d="M1795.04,836.36 C1795.04,836.36 1793.39,836.36 1793.39,836.36" fill="none" stroke="rgb(8, 8, 8)" stroke-width="30.00" stroke-opacity="1.00" stroke-linejoin="round"/>
<path d="M1793.39,836.36 L1638.84,960.33" fill="none" stroke="rgb(8, 8, 8)" stroke-width="30.00" stroke-opacity="1.00" stroke-linejoin="round"/>
<path d="M1638.84,960.33" fill="none" stroke="rgb(8, 8, 8)" stroke-width="30.00" stroke-opacity="1.00" stroke-linejoin="round"/>
<path d="M1638.84,960.33 L1904.96,934.71" fill="none" stroke="rgb(8, 8, 8)" stroke-width="30.00" stroke-opacity="1.00" stroke-linejoin="round"/>
<path d="M1904.96,934.71" fill="none" stroke="rgb(8, 8, 8)" stroke-width="30.00" stroke-opacity="1.00" stroke-linejoin="round"/>
<path d="M1904.96,934.71 L1770.25,856.20" fill="none" stroke="rgb(8, 8, 8)" stroke-width="30.00" stroke-opacity="1.00" stroke-linejoin="round"/>
<path d="M1769.83,856.20 C1769.83,856.20 1769.42,857.02 1769.42,857.02" fill="none" stroke="rgb(8, 8, 8)" stroke-width="30.00" stroke-opacity="1.00" stroke-linejoin="round"/>
<path d="M1769.42,857.02 L1666.94,942.15" fill="none" stroke="rgb(8, 8, 8)" stroke-width="30.00" stroke-opacity="1.00" stroke-linejoin="round"/>
<path d="M1666.94,942.15 C1666.94,942.15 1671.07,941.32 1671.07,941.32" fill="none" stroke="rgb(8, 8, 8)" stroke-width="30.00" stroke-opacity="1.00" stroke-linejoin="round"/>
<path d="M1671.07,941.32 L1765.29,927.27" fill="none" stroke="rgb(8, 8, 8)" stroke-width="30.00" stroke-opacity="1.00" stroke-linejoin="round"/>
<path d="M1765.29,927.27 C1765.29,927.27 1766.12,927.27 1766.12,927.27" fill="none" stroke="rgb(8, 8, 8)" stroke-width="30.00" stroke-opacity="1.00" stroke-linejoin="round"/>
<path d="M1766.12,927.27 L1844.63,909.09" fill="none" stroke="rgb(8, 8, 8)" stroke-width="30.00" stroke-opacity="1.00" stroke-linejoin="round"/>
<path d="M1844.63,909.09" fill="none" stroke="rgb(8, 8, 8)" stroke-width="30.00" stroke-opacity="1.00" stroke-linejoin="round"/>
<path d="M1844.63,909.09 L1784.30,878.51" fill="none" stroke="rgb(8, 8, 8)" stroke-width="30.00" stroke-opacity="1.00" stroke-linejoin="round"/>
<path d="M1784.30,878.51" fill="none" stroke="rgb(8, 8, 8)" stroke-width="30.00" stroke-opacity="1.00" stroke-linejoin="round"/>
<path d="M1784.30,878.51 L1747.93,884.30" fill="none" stroke="rgb(8, 8, 8)" stroke-width="30.00" stroke-opacity="1.00" stroke-linejoin="round"/>
<path d="M1747.93,884.30 C1747.93,884.30 1750.41,884.30 1750.41,884.30" fill="none" stroke="rgb(8, 8, 8)" stroke-width="30.00" stroke-opacity="1.00" stroke-linejoin="round"/>
<path d="M1750.41,884.30 L1704.13,916.53" fill="none" stroke="rgb(8, 8, 8)" stroke-width="30.00" stroke-opacity="1.00" stroke-linejoin="round"/>
<path d="M1704.13,916.53 C1704.13,916.53 1711.57,916.53 1711.57,916.53" fill="none" stroke="rgb(8, 8, 8)" stroke-width="30.00" stroke-opacity="1.00" stroke-linejoin="round"/>
<path d="M1711.57,916.53 L1800.83,906.61" fill="none" stroke="rgb(8, 8, 8)" stroke-width="30.00" stroke-opacity="1.00" stroke-linejoin="round"/>
<path d="M1800.83,906.61" fill="none" stroke="rgb(8, 8, 8)" stroke-width="30.00" stroke-opacity="1.00" stroke-linejoin="round"/>
<path d="M1800.83,906.61 L1840.50,914.88" fill="none" stroke="rgb(8, 8, 8)" stroke-width="30.00" stroke-opacity="1.00" stroke-linejoin="round"/>
<path d="M1840.50,914.88 C1840.50,914.88 1839.67,915.29 1839.67,915.29 C1839.67,915.29 1839.67,916.53 1839.67,916.53" fill="none" stroke="rgb(8, 8, 8)" stroke-width="30.00" stroke-opacity="1.00" stroke-linejoin="round"/>
<path d="M1839.67,916.53 L1766.12,894.21" fill="none" stroke="rgb(8, 8, 8)" stroke-width="30.00" stroke-opacity="1.00" stroke-linejoin="round"/>
<path d="M1766.12,894.21" fill="none" stroke="rgb(8, 8, 8)" stroke-width="30.00" stroke-opacity="1.00" stroke-linejoin="round"/>
<path d="M1766.12,894.21 L1695.04,898.35" fill="none" stroke="rgb(8, 8, 8)" stroke-width="30.00" stroke-opacity="1.00" stroke-linejoin="round"/>
<path d="M1695.04,898.35 C1695.04,898.35 1699.17,898.35 1699.17,898.35" fill="none" stroke="rgb(8, 8, 8)" stroke-width="30.00" stroke-opacity="1.00" stroke-linejoin="round"/>
</g>
</svg>
