<?xml version="1.0" encoding="UTF-8" standalone="no"?>
<!DOCTYPE svg PUBLIC "-//W3C//DTD SVG 1.1//EN" "http://www.w3.org/Graphics/SVG/1.1/DTD/svg11.dtd">
<svg width="960.00" height="540.00" viewBox="0.00 0.00 1920.00 1080.00" xmlns="http://www.w3.org/2000/svg" xmlns:xlink="http://www.w3.org/1999/xlink">
<g stroke-linecap="round" id="Layer_5">
<path d="M707.73,492.27" fill="none" stroke="rgb(255, 255, 255)" stroke-width="8.00" stroke-opacity="1.00" stroke-linejoin="round"/>
<path d="M715.91,516.82" fill="none" stroke="rgb(255, 255, 255)" stroke-width="8.00" stroke-opacity="1.00" stroke-linejoin="round"/>
<path d="M715.91,516.82 L874.09,433.64" fill="none" stroke="rgb(255, 255, 255)" stroke-width="8.00" stroke-opacity="1.00" stroke-linejoin="round"/>
<path d="M874.09,433.64" fill="none" stroke="rgb(255, 255, 255)" stroke-width="8.00" stroke-opacity="1.00" stroke-linejoin="round"/>
<path d="M874.09,433.64 L931.36,312.27" fill="none" stroke="rgb(255, 255, 255)" stroke-width="8.00" stroke-opacity="1.00" stroke-linejoin="round"/>
<path d="M931.36,312.27" fill="none" stroke="rgb(255, 255, 255)" stroke-width="8.00" stroke-opacity="1.00" stroke-linejoin="round"/>
<path d="M931.36,312.27 L1888.63,312.27" fill="none" stroke="rgb(255, 255, 255)" stroke-width="8.00" stroke-opacity="1.00" stroke-linejoin="round"/>
<path d="M1888.63,312.27" fill="none" stroke="rgb(255, 255, 255)" stroke-width="8.00" stroke-opacity="1.00" stroke-linejoin="round"/>
<path d="M1888.63,312.27 L1742.72,664.09" fill="none" stroke="rgb(255, 255, 255)" stroke-width="8.00" stroke-opacity="1.00" stroke-linejoin="round"/>
<path d="M1742.72,664.09" fill="none" stroke="rgb(255, 255, 255)" stroke-width="8.00" stroke-opacity="1.00" stroke-linejoin="round"/>
<path d="M1742.72,664.09 L751.36,670.91" fill="none" stroke="rgb(255, 255, 255)" stroke-width="8.00" stroke-opacity="1.00" stroke-linejoin="round"/>
<path d="M751.36,670.91 C751.36,670.91 750.00,670.91 750.00,670.91" fill="none" stroke="rgb(255, 255, 255)" stroke-width="8.00" stroke-opacity="1.00" stroke-linejoin="round"/>
<path d="M750.00,670.91 L834.54,505.91" fill="none" stroke="rgb(255, 255, 255)" stroke-width="8.00" stroke-opacity="1.00" stroke-linejoin="round"/>
<path d="M834.54,505.91" fill="none" stroke="rgb(255, 255, 255)" stroke-width="8.00" stroke-opacity="1.00" stroke-linejoin="round"/>
<path d="M834.54,505.91 L698.18,541.36" fill="none" stroke="rgb(255, 255, 255)" stroke-width="8.00" stroke-opacity="1.00" stroke-linejoin="round"/>
<path d="M698.18,541.36" fill="none" stroke="rgb(255, 255, 255)" stroke-width="8.00" stroke-opacity="1.00" stroke-linejoin="round"/>
<path d="M841.82,503.64" fill="none" stroke="rgb(255, 255, 255)" stroke-width="12.00" stroke-opacity="1.00" stroke-linejoin="round"/>
<path d="M841.82,503.64 L746.36,671.82" fill="none" stroke="rgb(255, 255, 255)" stroke-width="12.00" stroke-opacity="1.00" stroke-linejoin="round"/>
<path d="M746.36,671.82" fill="none" stroke="rgb(255, 255, 255)" stroke-width="12.00" stroke-opacity="1.00" stroke-linejoin="round"/>
<path d="M746.36,671.82 L1743.49,663.92" fill="none" stroke="rgb(255, 255, 255)" stroke-width="12.00" stroke-opacity="1.00" stroke-linejoin="round"/>
<path d="M1743.49,663.92" fill="none" stroke="rgb(255, 255, 255)" stroke-width="12.00" stroke-opacity="1.00" stroke-linejoin="round"/>
<path d="M1743.49,663.92 L1890.26,312.76" fill="none" stroke="rgb(255, 255, 255)" stroke-width="12.00" stroke-opacity="1.00" stroke-linejoin="round"/>
<path d="M1890.26,312.76" fill="none" stroke="rgb(255, 255, 255)" stroke-width="12.00" stroke-opacity="1.00" stroke-linejoin="round"/>
<path d="M1890.26,312.76 L932.79,315.50" fill="none" stroke="rgb(255, 255, 255)" stroke-width="12.00" stroke-opacity="1.00" stroke-linejoin="round"/>
<path d="M932.79,315.50 C932.79,315.50 932.79,314.13 932.79,314.13" fill="none" stroke="rgb(255, 255, 255)" stroke-width="12.00" stroke-opacity="1.00" stroke-linejoin="round"/>
<path d="M932.79,314.13 L869.69,437.59" fill="none" stroke="rgb(255, 255, 255)" stroke-width="12.00" stroke-opacity="1.00" stroke-linejoin="round"/>
<path d="M869.69,437.59" fill="none" stroke="rgb(255, 255, 255)" stroke-width="12.00" stroke-opacity="1.00" stroke-linejoin="round"/>
<path d="M869.69,437.59 L707.82,528.12" fill="none" stroke="rgb(255, 255, 255)" stroke-width="12.00" stroke-opacity="1.00" stroke-linejoin="round"/>
<path d="M707.82,528.12 C707.82,528.12 709.19,528.12 709.19,528.12" fill="none" stroke="rgb(255, 255, 255)" stroke-width="12.00" stroke-opacity="1.00" stroke-linejoin="round"/>
<path d="M718.63,526.36" fill="none" stroke="rgb(255, 255, 255)" stroke-width="25.00" stroke-opacity="1.00" stroke-linejoin="round"/>
<path d="M733.00,519.50" fill="none" stroke="rgb(255, 255, 255)" stroke-width="25.00" stroke-opacity="1.00" stroke-linejoin="round"/>
<path d="M733.00,519.50 L870.50,484.00" fill="none" stroke="rgb(255, 255, 255)" stroke-width="25.00" stroke-opacity="1.00" stroke-linejoin="round"/>
<path d="M870.50,484.00" fill="none" stroke="rgb(255, 255, 255)" stroke-width="25.00" stroke-opacity="1.00" stroke-linejoin="round"/>
<path d="M870.50,484.00 L887.00,439.00" fill="none" stroke="rgb(255, 255, 255)" stroke-width="25.00" stroke-opacity="1.00" stroke-linejoin="round"/>
<path d="M887.00,439.00 C887.00,439.00 887.50,439.00 887.50,439.00" fill="none" stroke="rgb(255, 255, 255)" stroke-width="25.00" stroke-opacity="1.00" stroke-linejoin="round"/>
<path d="M887.50,439.00 L785.00,498.00" fill="none" stroke="rgb(255, 255, 255)" stroke-width="25.00" stroke-opacity="1.00" stroke-linejoin="round"/>
<path d="M785.00,498.00 C785.00,498.00 784.50,498.00 784.50,498.00" fill="none" stroke="rgb(255, 255, 255)" stroke-width="25.00" stroke-opacity="1.00" stroke-linejoin="round"/>
<path d="M784.50,498.00 L781.00,497.50" fill="none" stroke="rgb(255, 255, 255)" stroke-width="25.00" stroke-opacity="1.00" stroke-linejoin="round"/>
<path d="M781.00,497.50" fill="none" stroke="rgb(255, 255, 255)" stroke-width="25.00" stroke-opacity="1.00" stroke-linejoin="round"/>
<path d="M781.00,497.50 L778.00,497.50" fill="none" stroke="rgb(255, 255, 255)" stroke-width="25.00" stroke-opacity="1.00" stroke-linejoin="round"/>
<path d="M778.00,497.50" fill="none" stroke="rgb(255, 255, 255)" stroke-width="25.00" stroke-opacity="1.00" stroke-linejoin="round"/>
<path d="M778.00,497.50 L880.00,469.00" fill="none" stroke="rgb(255, 255, 255)" stroke-width="25.00" stroke-opacity="1.00" stroke-linejoin="round"/>
<path d="M880.00,469.00" fill="none" stroke="rgb(255, 255, 255)" stroke-width="25.00" stroke-opacity="1.00" stroke-linejoin="round"/>
<path d="M880.00,469.00 L936.50,327.00" fill="none" stroke="rgb(255, 255, 255)" stroke-width="25.00" stroke-opacity="1.00" stroke-linejoin="round"/>
<path d="M936.50,327.00" fill="none" stroke="rgb(255, 255, 255)" stroke-width="25.00" stroke-opacity="1.00" stroke-linejoin="round"/>
<path d="M936.50,327.00 L880.50,441.50" fill="none" stroke="rgb(255, 255, 255)" stroke-width="25.00" stroke-opacity="1.00" stroke-linejoin="round"/>
<path d="M880.50,441.50 C880.50,441.50 881.00,441.50 881.00,441.50" fill="none" stroke="rgb(255, 255, 255)" stroke-width="25.00" stroke-opacity="1.00" stroke-linejoin="round"/>
<path d="M765.29,663.64" fill="none" stroke="rgb(255, 255, 255)" stroke-width="25.00" stroke-opacity="1.00" stroke-linejoin="round"/>
<path d="M765.29,663.64 L871.07,476.86" fill="none" stroke="rgb(255, 255, 255)" stroke-width="25.00" stroke-opacity="1.00" stroke-linejoin="round"/>
<path d="M871.07,476.86" fill="none" stroke="rgb(255, 255, 255)" stroke-width="25.00" stroke-opacity="1.00" stroke-linejoin="round"/>
<path d="M780.25,659.26 C780.25,659.26 781.48,658.02 781.48,658.02" fill="none" stroke="rgb(255, 255, 255)" stroke-width="25.00" stroke-opacity="1.00" stroke-linejoin="round"/>
<path d="M781.48,658.02 L1738.27,651.85" fill="none" stroke="rgb(255, 255, 255)" stroke-width="25.00" stroke-opacity="1.00" stroke-linejoin="round"/>
<path d="M1738.27,651.85" fill="none" stroke="rgb(255, 255, 255)" stroke-width="25.00" stroke-opacity="1.00" stroke-linejoin="round"/>
<path d="M1738.27,651.85 L1871.60,319.75" fill="none" stroke="rgb(255, 255, 255)" stroke-width="25.00" stroke-opacity="1.00" stroke-linejoin="round"/>
<path d="M1871.60,319.75" fill="none" stroke="rgb(255, 255, 255)" stroke-width="25.00" stroke-opacity="1.00" stroke-linejoin="round"/>
<path d="M1871.60,319.75 L940.74,325.93" fill="none" stroke="rgb(255, 255, 255)" stroke-width="25.00" stroke-opacity="1.00" stroke-linejoin="round"/>
<path d="M940.74,325.93" fill="none" stroke="rgb(255, 255, 255)" stroke-width="25.00" stroke-opacity="1.00" stroke-linejoin="round"/>
<path d="M956.79,367.90" fill="none" stroke="rgb(255, 255, 255)" stroke-width="80.00" stroke-opacity="1.00" stroke-linejoin="round"/>
<path d="M956.79,367.90 L1832.10,361.73" fill="none" stroke="rgb(255, 255, 255)" stroke-width="80.00" stroke-opacity="1.00" stroke-linejoin="round"/>
<path d="M1832.10,361.73" fill="none" stroke="rgb(255, 255, 255)" stroke-width="80.00" stroke-opacity="1.00" stroke-linejoin="round"/>
<path d="M1832.10,361.73 L1706.17,614.81" fill="none" stroke="rgb(255, 255, 255)" stroke-width="80.00" stroke-opacity="1.00" stroke-linejoin="round"/>
<path d="M1706.17,614.81" fill="none" stroke="rgb(255, 255, 255)" stroke-width="80.00" stroke-opacity="1.00" stroke-linejoin="round"/>
<path d="M1706.17,614.81 L817.28,629.63" fill="none" stroke="rgb(255, 255, 255)" stroke-width="80.00" stroke-opacity="1.00" stroke-linejoin="round"/>
<path d="M817.28,629.63" fill="none" stroke="rgb(255, 255, 255)" stroke-width="80.00" stroke-opacity="1.00" stroke-linejoin="round"/>
<path d="M817.28,629.63 L976.54,422.22" fill="none" stroke="rgb(255, 255, 255)" stroke-width="80.00" stroke-opacity="1.00" stroke-linejoin="round"/>
<path d="M976.54,422.22 C976.54,422.22 976.54,420.99 976.54,420.99" fill="none" stroke="rgb(255, 255, 255)" stroke-width="80.00" stroke-opacity="1.00" stroke-linejoin="round"/>
<path d="M976.54,420.99 L955.56,392.59" fill="none" stroke="rgb(255, 255, 255)" stroke-width="80.00" stroke-opacity="1.00" stroke-linejoin="round"/>
<path d="M955.56,392.59" fill="none" stroke="rgb(255, 255, 255)" stroke-width="80.00" stroke-opacity="1.00" stroke-linejoin="round"/>
<path d="M955.56,392.59 L918.52,439.51" fill="none" stroke="rgb(255, 255, 255)" stroke-width="80.00" stroke-opacity="1.00" stroke-linejoin="round"/>
<path d="M918.52,439.51 C918.52,439.51 920.99,439.51 920.99,439.51" fill="none" stroke="rgb(255, 255, 255)" stroke-width="80.00" stroke-opacity="1.00" stroke-linejoin="round"/>
<path d="M920.99,439.51 L964.20,350.62" fill="none" stroke="rgb(255, 255, 255)" stroke-width="80.00" stroke-opacity="1.00" stroke-linejoin="round"/>
<path d="M964.20,350.62" fill="none" stroke="rgb(255, 255, 255)" stroke-width="80.00" stroke-opacity="1.00" stroke-linejoin="round"/>
<path d="M964.20,350.62 L1065.43,424.69" fill="none" stroke="rgb(255, 255, 255)" stroke-width="80.00" stroke-opacity="1.00" stroke-linejoin="round"/>
<path d="M1065.43,424.69" fill="none" stroke="rgb(255, 255, 255)" stroke-width="80.00" stroke-opacity="1.00" stroke-linejoin="round"/>
<path d="M1065.43,424.69 L1596.30,382.72" fill="none" stroke="rgb(255, 255, 255)" stroke-width="80.00" stroke-opacity="1.00" stroke-linejoin="round"/>
<path d="M1596.30,382.72 C1596.30,382.72 1595.06,382.72 1595.06,382.72" fill="none" stroke="rgb(255, 255, 255)" stroke-width="80.00" stroke-opacity="1.00" stroke-linejoin="round"/>
<path d="M1595.06,382.72 L1138.27,372.84" fill="none" stroke="rgb(255, 255, 255)" stroke-width="80.00" stroke-opacity="1.00" stroke-linejoin="round"/>
<path d="M1138.27,372.84 C1138.27,372.84 1133.33,374.07 1133.33,374.07" fill="none" stroke="rgb(255, 255, 255)" stroke-width="80.00" stroke-opacity="1.00" stroke-linejoin="round"/>
<path d="M1133.33,374.07 L1024.69,416.05" fill="none" stroke="rgb(255, 255, 255)" stroke-width="80.00" stroke-opacity="1.00" stroke-linejoin="round"/>
<path d="M1024.69,416.05 C1024.69,416.05 1023.46,419.75 1023.46,419.75" fill="none" stroke="rgb(255, 255, 255)" stroke-width="80.00" stroke-opacity="1.00" stroke-linejoin="round"/>
<path d="M1023.46,419.75 L927.16,576.54" fill="none" stroke="rgb(255, 255, 255)" stroke-width="80.00" stroke-opacity="1.00" stroke-linejoin="round"/>
<path d="M927.16,576.54" fill="none" stroke="rgb(255, 255, 255)" stroke-width="80.00" stroke-opacity="1.00" stroke-linejoin="round"/>
<path d="M927.16,576.54 L1692.59,537.04" fill="none" stroke="rgb(255, 255, 255)" stroke-width="80.00" stroke-opacity="1.00" stroke-linejoin="round"/>
<path d="M1692.59,537.04 C1692.59,537.04 1693.83,535.80 1693.83,535.80" fill="none" stroke="rgb(255, 255, 255)" stroke-width="80.00" stroke-opacity="1.00" stroke-linejoin="round"/>
<path d="M1693.83,535.80 L1745.68,395.06" fill="none" stroke="rgb(255, 255, 255)" stroke-width="80.00" stroke-opacity="1.00" stroke-linejoin="round"/>
<path d="M1745.68,395.06" fill="none" stroke="rgb(255, 255, 255)" stroke-width="80.00" stroke-opacity="1.00" stroke-linejoin="round"/>
<path d="M1745.68,395.06 L1134.57,446.91" fill="none" stroke="rgb(255, 255, 255)" stroke-width="80.00" stroke-opacity="1.00" stroke-linejoin="round"/>
<path d="M1134.57,446.91" fill="none" stroke="rgb(255, 255, 255)" stroke-width="80.00" stroke-opacity="1.00" stroke-linejoin="round"/>
<path d="M1134.57,446.91 L1009.88,475.31" fill="none" stroke="rgb(255, 255, 255)" stroke-width="80.00" stroke-opacity="1.00" stroke-linejoin="round"/>
<path d="M1010.49,474.07" fill="none" stroke="rgb(255, 255, 255)" stroke-width="80.00" stroke-opacity="1.00" stroke-linejoin="round"/>
<path d="M1012.35,474.07 L1011.11,527.16" fill="none" stroke="rgb(255, 255, 255)" stroke-width="80.00" stroke-opacity="1.00" stroke-linejoin="round"/>
<path d="M1011.11,527.16 C1011.11,527.16 1012.35,525.93 1012.35,525.93" fill="none" stroke="rgb(255, 255, 255)" stroke-width="80.00" stroke-opacity="1.00" stroke-linejoin="round"/>
<path d="M1012.35,525.93 L1233.33,498.77" fill="none" stroke="rgb(255, 255, 255)" stroke-width="80.00" stroke-opacity="1.00" stroke-linejoin="round"/>
<path d="M1233.33,498.77 C1233.33,498.77 1233.33,497.53 1233.33,497.53" fill="none" stroke="rgb(255, 255, 255)" stroke-width="80.00" stroke-opacity="1.00" stroke-linejoin="round"/>
<path d="M1233.33,497.53 L1490.12,471.60" fill="none" stroke="rgb(255, 255, 255)" stroke-width="80.00" stroke-opacity="1.00" stroke-linejoin="round"/>
<path d="M1490.74,470.37" fill="none" stroke="rgb(255, 255, 255)" stroke-width="80.00" stroke-opacity="1.00" stroke-linejoin="round"/>
<path d="M1492.59,470.37 L1685.19,488.89" fill="none" stroke="rgb(255, 255, 255)" stroke-width="80.00" stroke-opacity="1.00" stroke-linejoin="round"/>
<path d="M1685.19,488.89" fill="none" stroke="rgb(255, 255, 255)" stroke-width="80.00" stroke-opacity="1.00" stroke-linejoin="round"/>
<path d="M1685.19,488.89 L1643.21,538.27" fill="none" stroke="rgb(255, 255, 255)" stroke-width="80.00" stroke-opacity="1.00" stroke-linejoin="round"/>
<path d="M1643.21,538.27 C1643.21,538.27 1644.44,538.27 1644.44,538.27" fill="none" stroke="rgb(255, 255, 255)" stroke-width="80.00" stroke-opacity="1.00" stroke-linejoin="round"/>
<path d="M1644.44,538.27 L1603.70,577.78" fill="none" stroke="rgb(255, 255, 255)" stroke-width="80.00" stroke-opacity="1.00" stroke-linejoin="round"/>
<path d="M1603.70,577.78 C1603.70,577.78 1604.94,580.25 1604.94,580.25" fill="none" stroke="rgb(255, 255, 255)" stroke-width="80.00" stroke-opacity="1.00" stroke-linejoin="round"/>
<path d="M1604.94,580.25 L1144.44,527.16" fill="none" stroke="rgb(255, 255, 255)" stroke-width="80.00" stroke-opacity="1.00" stroke-linejoin="round"/>
<path d="M1146.30,527.16" fill="none" stroke="rgb(255, 255, 255)" stroke-width="80.00" stroke-opacity="1.00" stroke-linejoin="round"/>
<path d="M1145.68,527.16 L1013.58,514.81" fill="none" stroke="rgb(255, 255, 255)" stroke-width="80.00" stroke-opacity="1.00" stroke-linejoin="round"/>
<path d="M1013.58,514.81 C1016.79,514.80 1024.82,514.91 1025.31,514.81 C1026.83,514.52 1029.98,513.17 1031.63,512.22 C1033.18,511.34 1037.18,511.06 1041.98,509.88" fill="none" stroke="rgb(255, 255, 255)" stroke-width="80.00" stroke-opacity="1.00" stroke-linejoin="round"/>
<path d="M1041.98,509.88 L1769.14,376.54" fill="none" stroke="rgb(255, 255, 255)" stroke-width="80.00" stroke-opacity="1.00" stroke-linejoin="round"/>
<path d="M1769.14,376.54" fill="none" stroke="rgb(255, 255, 255)" stroke-width="80.00" stroke-opacity="1.00" stroke-linejoin="round"/>
<path d="M1769.14,376.54 L1677.78,480.25" fill="none" stroke="rgb(255, 255, 255)" stroke-width="80.00" stroke-opacity="1.00" stroke-linejoin="round"/>
<path d="M1677.78,480.25 C1677.78,480.25 1683.95,472.84 1683.95,472.84" fill="none" stroke="rgb(255, 255, 255)" stroke-width="80.00" stroke-opacity="1.00" stroke-linejoin="round"/>
<path d="M1636.00,438.00 C1636.61,438.29 1638.15,436.40 1639.00,436.00 C1639.67,436.00 1640.33,436.00 1641.00,436.00 C1641.85,435.59 1642.22,434.53 1643.00,434.00 C1643.75,433.51 1648.56,434.27 1649.00,434.00 C1649.80,433.50 1650.15,432.41 1651.00,432.00 C1651.67,432.00 1652.33,432.00 1653.00,432.00 C1653.84,431.58 1654.18,430.46 1655.00,430.00 C1655.36,429.80 1656.02,429.80 1657.00,430.00 C1625.01,430.00 1569.07,429.99 1545.11,429.97 C1541.11,429.99 1539.33,430.08 1537.50,429.00 C1535.41,427.79 1532.21,427.78 1527.00,428.00 C1521.00,428.22 1515.33,428.21 1512.71,427.00 C1512.11,426.72 1510.63,425.89 1509.00,426.00 C1506.17,426.22 1500.10,426.21 1497.48,425.00 C1494.87,423.79 1489.72,423.78 1486.00,424.00 C1483.56,424.13 1482.00,423.31 1481.49,422.98 C1479.51,421.76 1471.03,422.00 1471.00,422.00 C1468.28,421.81 1462.69,419.82 1460.93,419.90 C1459.55,419.96 1457.40,420.12 1457.00,420.00 C1456.43,419.83 1454.41,418.35 1453.00,418.00 C1451.73,417.69 1445.03,418.03 1442.60,418.20 C1441.60,418.24 1437.21,415.74 1434.64,415.89 C1433.18,416.00 1430.10,416.20 1429.00,416.00 C1427.38,415.71 1423.88,414.16 1423.00,414.00 C1422.34,413.88 1421.65,414.16 1421.00,414.00 C1420.43,413.87 1418.40,412.36 1417.00,412.00 C1415.77,411.69 1408.47,412.01 1406.48,412.20 C1405.39,412.31 1403.78,410.53 1403.00,410.00 C1402.52,409.68 1395.47,410.32 1395.00,410.00 C1394.23,409.46 1393.79,408.51 1393.00,408.00 C1392.46,407.65 1390.00,407.90 1389.00,408.00 C1387.52,408.16 1386.01,407.31 1385.48,407.00 C1383.42,405.79 1378.14,405.79 1375.00,406.00 C1371.89,406.20 1369.89,406.24 1369.00,406.00 C1368.30,405.81 1365.49,404.15 1365.00,404.00 C1363.60,403.56 1359.46,404.27 1359.00,404.00 C1358.19,403.52 1357.78,402.53 1357.00,402.00 C1357.00,402.00 1345.69,402.27 1345.00,402.00 C1344.45,401.78 1342.35,400.31 1341.00,400.00 C1339.66,399.70 1322.38,400.05 1321.00,400.00 C1324.11,399.95 1328.27,400.26 1329.00,400.00 C1329.07,399.98 1332.13,398.20 1333.00,398.00 C1334.31,397.71 1424.97,397.96 1455.00,398.00 C1459.00,398.00 1464.00,398.00 1465.00,398.00 C1433.48,398.01 1391.38,398.00 1388.55,397.93 C1384.49,397.80 1381.22,397.83 1379.24,399.00 C1377.14,400.22 1372.87,400.19 1368.00,400.00" fill="none" stroke="rgb(255, 255, 255)" stroke-width="80.00" stroke-opacity="1.00" stroke-linejoin="round"/>
<path d="M711.57,510.33 C711.57,510.33 715.50,511.16 715.50,511.16 C715.50,511.16 720.45,513.22 720.45,513.22 C720.45,513.22 721.69,514.05 721.69,514.05 C721.69,514.05 729.55,516.53 729.55,516.53 C729.55,516.53 736.57,516.94 736.57,516.94 C736.57,516.94 740.91,517.36 740.91,517.36" fill="none" stroke="rgb(255, 255, 255)" stroke-width="17.00" stroke-opacity="1.00" stroke-linejoin="round"/>
<path d="M713.22,492.98 C713.22,492.98 714.26,492.98 714.26,492.98 C714.26,492.98 715.50,494.21 715.50,494.21 C715.50,494.21 716.74,494.63 716.74,494.63 C716.74,494.63 723.35,496.69 723.35,496.69 C723.77,497.22 735.23,500.21 735.95,500.41 C736.88,500.64 741.32,502.11 741.94,502.07 C741.94,502.07 743.60,502.48 743.60,502.48 C743.60,502.48 744.83,503.31 744.83,503.31 C744.83,503.31 746.07,503.72 746.07,503.72 C746.07,503.72 747.73,503.72 747.73,503.72 C747.73,503.72 753.51,504.13 753.51,504.13 C753.51,504.13 754.13,504.55 754.13,504.55" fill="none" stroke="rgb(255, 255, 255)" stroke-width="17.00" stroke-opacity="1.00" stroke-linejoin="round"/>
<path d="M697.38,542.15 C697.38,542.15 697.64,542.15 697.64,542.15" fill="none" stroke="rgb(255, 255, 255)" stroke-width="7.00" stroke-opacity="1.00" stroke-linejoin="round"/>
<path d="M697.64,542.15 L712.26,489.04" fill="none" stroke="rgb(255, 255, 255)" stroke-width="7.00" stroke-opacity="1.00" stroke-linejoin="round"/>
<path d="M712.26,489.04" fill="none" stroke="rgb(255, 255, 255)" stroke-width="7.00" stroke-opacity="1.00" stroke-linejoin="round"/>
<path d="M712.26,489.04 L723.30,493.91" fill="none" stroke="rgb(255, 255, 255)" stroke-width="7.00" stroke-opacity="1.00" stroke-linejoin="round"/>
<path d="M723.30,493.91" fill="none" stroke="rgb(255, 255, 255)" stroke-width="7.00" stroke-opacity="1.00" stroke-linejoin="round"/>
<path d="M723.30,493.91 L700.46,539.07" fill="none" stroke="rgb(255, 255, 255)" stroke-width="7.00" stroke-opacity="1.00" stroke-linejoin="round"/>
<path d="M700.46,539.07 C700.46,539.07 700.97,539.07 700.97,539.07" fill="none" stroke="rgb(255, 255, 255)" stroke-width="7.00" stroke-opacity="1.00" stroke-linejoin="round"/>
<path d="M700.97,539.07 L713.55,534.97" fill="none" stroke="rgb(255, 255, 255)" stroke-width="7.00" stroke-opacity="1.00" stroke-linejoin="round"/>
<path d="M713.55,534.97" fill="none" stroke="rgb(255, 255, 255)" stroke-width="7.00" stroke-opacity="1.00" stroke-linejoin="round"/>
<path d="M713.55,534.97 L709.95,525.22" fill="none" stroke="rgb(255, 255, 255)" stroke-width="7.00" stroke-opacity="1.00" stroke-linejoin="round"/>
<path d="M709.95,525.22 C709.95,525.22 709.95,525.60 709.95,525.60 C709.95,525.60 709.70,526.63 709.70,526.63 C709.70,526.63 709.18,527.78 709.18,527.78" fill="none" stroke="rgb(255, 255, 255)" stroke-width="7.00" stroke-opacity="1.00" stroke-linejoin="round"/>
<path d="M709.18,527.78 L708.16,532.91" fill="none" stroke="rgb(255, 255, 255)" stroke-width="7.00" stroke-opacity="1.00" stroke-linejoin="round"/>
<path d="M708.16,532.91 C708.16,532.91 708.16,533.30 708.16,533.30 C708.16,533.30 707.90,533.43 707.90,533.43" fill="none" stroke="rgb(255, 255, 255)" stroke-width="7.00" stroke-opacity="1.00" stroke-linejoin="round"/>
<path d="M707.90,533.43 L706.36,518.03" fill="none" stroke="rgb(255, 255, 255)" stroke-width="7.00" stroke-opacity="1.00" stroke-linejoin="round"/>
<path d="M706.36,518.03" fill="none" stroke="rgb(255, 255, 255)" stroke-width="7.00" stroke-opacity="1.00" stroke-linejoin="round"/>
<path d="M706.36,518.03 L713.55,507.51" fill="none" stroke="rgb(255, 255, 255)" stroke-width="7.00" stroke-opacity="1.00" stroke-linejoin="round"/>
<path d="M713.67,507.51 C713.67,507.51 714.06,507.00 714.06,507.00" fill="none" stroke="rgb(255, 255, 255)" stroke-width="7.00" stroke-opacity="1.00" stroke-linejoin="round"/>
<path d="M714.06,507.00 L719.96,495.71" fill="none" stroke="rgb(255, 255, 255)" stroke-width="7.00" stroke-opacity="1.00" stroke-linejoin="round"/>
<path d="M719.96,495.71 C719.96,495.71 720.22,495.71 720.22,495.71" fill="none" stroke="rgb(255, 255, 255)" stroke-width="7.00" stroke-opacity="1.00" stroke-linejoin="round"/>
<path d="M720.22,495.71 L727.15,504.18" fill="none" stroke="rgb(255, 255, 255)" stroke-width="7.00" stroke-opacity="1.00" stroke-linejoin="round"/>
<path d="M727.15,504.31 C727.15,504.31 727.40,504.69 727.40,504.69" fill="none" stroke="rgb(255, 255, 255)" stroke-width="7.00" stroke-opacity="1.00" stroke-linejoin="round"/>
<path d="M727.40,504.69 L720.47,494.68" fill="none" stroke="rgb(255, 255, 255)" stroke-width="7.00" stroke-opacity="1.00" stroke-linejoin="round"/>
<path d="M720.47,494.68 C720.47,494.68 721.50,494.68 721.50,494.68" fill="none" stroke="rgb(255, 255, 255)" stroke-width="7.00" stroke-opacity="1.00" stroke-linejoin="round"/>
<path d="M718.93,497.76 C718.97,498.04 718.43,502.89 718.42,505.59 C718.41,516.44 716.84,526.51 716.88,526.89 C717.50,526.32 719.75,519.55 720.60,518.16 C723.86,512.82 728.49,501.30 728.43,500.97 C728.43,500.97 729.33,499.82 729.33,499.82 C729.39,500.55 728.13,512.34 727.40,515.21 C726.89,517.33 724.80,523.66 724.84,523.81 C724.15,522.84 728.21,511.09 729.71,505.59 C729.97,504.69 730.46,502.89 730.48,501.23 C730.01,500.85 722.38,512.38 721.50,514.83 C721.43,515.02 720.10,518.47 719.70,519.70 C719.57,520.12 719.20,523.36 719.19,524.06 C719.19,524.06 721.89,523.93 721.89,523.93 C721.89,523.93 722.91,523.16 722.91,523.16 C724.89,522.50 728.01,521.02 732.02,518.93 C738.87,515.28 742.71,510.04 742.80,509.95 C742.80,509.95 742.03,512.26 742.03,512.26 C742.03,512.26 740.49,523.04 740.49,523.04 C740.49,523.04 740.62,524.19 740.62,524.19 C740.62,524.19 738.31,525.47 738.31,525.47 C738.31,525.47 734.46,527.14 734.46,527.14 C734.46,527.14 731.25,529.19 731.25,529.19 C731.25,529.19 730.48,529.96 730.48,529.96 C730.48,529.96 738.69,523.29 738.69,523.29 C738.69,523.29 739.72,522.39 739.72,522.39" fill="none" stroke="rgb(255, 255, 255)" stroke-width="7.00" stroke-opacity="1.00" stroke-linejoin="round"/>
<path d="M742.80,515.60 C742.80,515.60 742.03,514.57 742.03,514.57 C742.03,514.57 741.26,513.29 741.26,513.29 C741.26,513.29 740.74,512.26 740.74,512.26 C740.74,512.26 739.72,510.72 739.72,510.72 C739.72,510.72 738.95,509.44 738.95,509.44 C738.95,509.44 737.28,507.39 737.28,507.39 C737.28,507.39 735.23,505.59 735.23,505.59 C735.23,505.59 734.20,504.82 734.20,504.82 C734.20,504.82 732.40,503.15 732.40,503.15 C732.40,503.15 731.12,502.38 731.12,502.38 C731.12,502.38 730.35,501.61 730.35,501.61 C730.35,501.61 729.07,500.84 729.07,500.84 C729.07,500.84 728.04,499.82 728.04,499.82 C728.04,499.82 726.63,498.66 726.63,498.66 C726.63,498.66 725.61,497.12 725.61,497.12 C725.61,497.12 725.09,496.10 725.09,496.10 C725.09,496.10 723.17,493.91 723.17,493.91 C723.17,493.91 724.45,493.40 724.45,493.40 C724.45,493.40 725.35,494.04 725.35,494.04 C725.35,494.04 726.76,495.20 726.76,495.20 C726.76,495.20 727.79,495.45 727.79,495.45 C727.79,495.45 728.68,496.10 728.68,496.10 C728.68,496.10 728.94,497.12 728.94,497.12 C728.94,497.12 729.20,499.05 729.20,499.05" fill="none" stroke="rgb(255, 255, 255)" stroke-width="7.00" stroke-opacity="1.00" stroke-linejoin="round"/>
<path d="M717.65,513.67 C717.65,513.67 717.65,514.06 717.65,514.06 C717.65,514.06 714.32,517.39 714.32,517.39 C714.32,517.39 713.03,518.93 713.03,518.93 C713.03,518.93 709.70,523.81 709.70,523.81 C709.70,523.81 708.93,524.83 708.93,524.83 C708.93,524.83 705.85,528.42 705.85,528.42 C705.85,528.42 705.08,529.71 705.08,529.71 C705.08,529.71 704.31,531.50 704.31,531.50 C704.31,531.50 703.54,534.84 703.54,534.84 C703.54,534.84 703.28,536.12 703.28,536.12 C703.28,536.12 702.51,537.66 702.51,537.66 C702.51,537.66 701.74,538.05 701.74,538.05" fill="none" stroke="rgb(255, 255, 255)" stroke-width="7.00" stroke-opacity="1.00" stroke-linejoin="round"/>
<path d="M710.22,502.13 C710.22,502.13 712.44,502.76 712.44,502.76 C713.80,502.86 735.75,507.80 736.36,507.84 C736.73,507.87 741.20,508.72 741.76,508.69" fill="none" stroke="rgb(255, 255, 255)" stroke-width="15.00" stroke-opacity="1.00" stroke-linejoin="round"/>
<path d="M752.24,506.25 C752.02,506.52 744.04,513.48 742.71,514.09 C742.55,514.16 734.34,519.58 730.86,521.18 C725.67,523.56 702.84,533.21 700.37,535.68 C700.35,535.70 699.55,536.17 699.31,536.42 C699.31,536.42 701.22,536.21 701.22,536.21 C701.22,536.21 702.28,535.57 702.28,535.57 C702.94,535.64 707.51,533.71 709.79,533.24 C713.33,532.56 723.38,529.94 723.87,530.07 C723.87,530.07 726.62,527.21 726.62,527.21 C727.74,526.91 755.90,511.32 756.68,510.80 C761.50,507.59 768.25,505.25 768.85,505.09" fill="none" stroke="rgb(255, 255, 255)" stroke-width="15.00" stroke-opacity="1.00" stroke-linejoin="round"/>
<path d="M782.19,503.82 C782.19,503.82 781.03,503.82 781.03,503.82 C781.03,503.82 779.33,504.45 779.33,504.45 C777.53,505.04 766.04,510.24 752.66,516.10 C745.33,519.30 733.73,522.80 732.87,522.98 C727.27,524.14 725.25,524.56 722.81,524.56 C722.81,524.56 722.92,522.55 722.92,522.55 C722.92,522.55 723.34,520.65 723.34,520.65 C723.63,519.93 724.41,516.05 723.98,512.60 C723.76,512.18 723.34,510.49 723.34,510.49 C723.34,510.49 722.49,509.01 722.49,509.01 C722.49,509.01 722.07,507.95 722.07,507.95 C722.07,507.95 721.65,506.68 721.65,506.68 C721.65,506.68 719.85,504.67 719.85,504.67 C719.85,504.67 716.04,504.03 716.04,504.03 C716.04,504.03 713.71,503.18 713.71,503.18 C713.71,503.18 712.01,502.23 712.01,502.23 C712.01,502.23 711.27,500.96 711.27,500.96 C711.27,500.96 710.64,500.11 710.64,500.11 C710.64,500.11 710.43,498.84 710.43,498.84 C710.43,498.84 713.71,498.74 713.71,498.74 C718.15,499.85 724.69,502.30 732.65,503.61 C734.65,503.61 742.95,505.63 746.10,505.51 C747.58,505.62 750.98,505.94 756.32,505.93 C764.82,505.94 766.46,505.26 767.37,505.30" fill="none" stroke="rgb(255, 255, 255)" stroke-width="15.00" stroke-opacity="1.00" stroke-linejoin="round"/>
</g>
</svg>
