<?xml version="1.0" encoding="UTF-8"?>
<svg id="Layer_2" data-name="Layer 2" xmlns="http://www.w3.org/2000/svg" viewBox="0 0 1115.37 352.2">
  <defs>
    <style>
      .cls-1, .cls-2 {
        fill: #fff;
        stroke-width: 0px;
      }

      .cls-2 {
        opacity: .96;
      }
    </style>
  </defs>
  <g id="Chat_White">
    <path class="cls-2" d="M950.38,352.2H15.25c-1.42,0-2.04-1.16-1.37-2.59L174.82,2.59c.66-1.43,2.35-2.59,3.78-2.59h935.13c1.42,0,2.04,1.16,1.37,2.59l-160.95,347.03c-.66,1.43-2.35,2.59-3.78,2.59Z"/>
    <path class="cls-1" d="M147.92,127.41c-35.48,18.83-70.95,37.65-106.43,56.48-13.8-4.65-27.6-9.3-41.4-13.95-.03,19.14-.06,38.28-.09,57.42,40.46-11.04,80.91-22.08,121.36-33.12,8.85-22.27,17.7-44.55,26.55-66.83Z"/>
  </g>
</svg>