<?xml version="1.0" encoding="UTF-8" standalone="no"?>
<!DOCTYPE svg PUBLIC "-//W3C//DTD SVG 1.1//EN" "http://www.w3.org/Graphics/SVG/1.1/DTD/svg11.dtd">
<svg width="960.00" height="540.00" viewBox="0.00 0.00 1920.00 1080.00" xmlns="http://www.w3.org/2000/svg" xmlns:xlink="http://www.w3.org/1999/xlink">
<g stroke-linecap="round" id="Layer_3">
<path d="M938.89,324.44" fill="none" stroke="rgb(8, 8, 8)" stroke-width="12.00" stroke-opacity="1.00" stroke-linejoin="round"/>
<path d="M938.89,324.44 L756.67,666.67" fill="none" stroke="rgb(8, 8, 8)" stroke-width="12.00" stroke-opacity="1.00" stroke-linejoin="round"/>
<path d="M756.67,666.67" fill="none" stroke="rgb(8, 8, 8)" stroke-width="12.00" stroke-opacity="1.00" stroke-linejoin="round"/>
<path d="M756.67,666.67 L1724.44,657.78" fill="none" stroke="rgb(8, 8, 8)" stroke-width="12.00" stroke-opacity="1.00" stroke-linejoin="round"/>
<path d="M1724.44,657.78" fill="none" stroke="rgb(8, 8, 8)" stroke-width="12.00" stroke-opacity="1.00" stroke-linejoin="round"/>
<path d="M1724.44,657.78 L1873.33,337.78" fill="none" stroke="rgb(8, 8, 8)" stroke-width="12.00" stroke-opacity="1.00" stroke-linejoin="round"/>
<path d="M1873.33,337.78" fill="none" stroke="rgb(8, 8, 8)" stroke-width="12.00" stroke-opacity="1.00" stroke-linejoin="round"/>
<path d="M938.89,323.33" fill="none" stroke="rgb(8, 8, 8)" stroke-width="12.00" stroke-opacity="1.00" stroke-linejoin="round"/>
<path d="M938.89,323.33 L1880.00,321.11" fill="none" stroke="rgb(8, 8, 8)" stroke-width="12.00" stroke-opacity="1.00" stroke-linejoin="round"/>
<path d="M1880.00,321.11" fill="none" stroke="rgb(8, 8, 8)" stroke-width="12.00" stroke-opacity="1.00" stroke-linejoin="round"/>
<path d="M1880.00,321.11 L1861.11,360.00" fill="none" stroke="rgb(8, 8, 8)" stroke-width="12.00" stroke-opacity="1.00" stroke-linejoin="round"/>
<path d="M1861.11,360.00" fill="none" stroke="rgb(8, 8, 8)" stroke-width="12.00" stroke-opacity="1.00" stroke-linejoin="round"/>
<path d="M950.45,338.18" fill="none" stroke="rgb(8, 8, 8)" stroke-width="40.00" stroke-opacity="1.00" stroke-linejoin="round"/>
<path d="M950.45,338.18 L788.18,646.36" fill="none" stroke="rgb(8, 8, 8)" stroke-width="40.00" stroke-opacity="1.00" stroke-linejoin="round"/>
<path d="M788.18,646.36" fill="none" stroke="rgb(8, 8, 8)" stroke-width="40.00" stroke-opacity="1.00" stroke-linejoin="round"/>
<path d="M788.18,646.36 L1714.09,638.18" fill="none" stroke="rgb(8, 8, 8)" stroke-width="40.00" stroke-opacity="1.00" stroke-linejoin="round"/>
<path d="M1714.09,638.18" fill="none" stroke="rgb(8, 8, 8)" stroke-width="40.00" stroke-opacity="1.00" stroke-linejoin="round"/>
<path d="M1714.09,638.18 L1851.81,334.09" fill="none" stroke="rgb(8, 8, 8)" stroke-width="40.00" stroke-opacity="1.00" stroke-linejoin="round"/>
<path d="M1851.81,334.09" fill="none" stroke="rgb(8, 8, 8)" stroke-width="40.00" stroke-opacity="1.00" stroke-linejoin="round"/>
<path d="M958.63,340.91" fill="none" stroke="rgb(8, 8, 8)" stroke-width="40.00" stroke-opacity="1.00" stroke-linejoin="round"/>
<path d="M958.63,340.91 L1832.72,336.82" fill="none" stroke="rgb(8, 8, 8)" stroke-width="40.00" stroke-opacity="1.00" stroke-linejoin="round"/>
<path d="M1832.72,336.82 C1832.72,336.82 1832.72,335.45 1832.72,335.45" fill="none" stroke="rgb(8, 8, 8)" stroke-width="40.00" stroke-opacity="1.00" stroke-linejoin="round"/>
<path d="M1832.72,335.45 L1695.00,616.36" fill="none" stroke="rgb(8, 8, 8)" stroke-width="40.00" stroke-opacity="1.00" stroke-linejoin="round"/>
<path d="M1695.00,616.36" fill="none" stroke="rgb(8, 8, 8)" stroke-width="40.00" stroke-opacity="1.00" stroke-linejoin="round"/>
<path d="M1695.00,616.36 L823.63,624.54" fill="none" stroke="rgb(8, 8, 8)" stroke-width="40.00" stroke-opacity="1.00" stroke-linejoin="round"/>
<path d="M823.63,624.54" fill="none" stroke="rgb(8, 8, 8)" stroke-width="40.00" stroke-opacity="1.00" stroke-linejoin="round"/>
<path d="M823.63,624.54 L983.18,340.91" fill="none" stroke="rgb(8, 8, 8)" stroke-width="40.00" stroke-opacity="1.00" stroke-linejoin="round"/>
<path d="M983.18,340.91" fill="none" stroke="rgb(8, 8, 8)" stroke-width="40.00" stroke-opacity="1.00" stroke-linejoin="round"/>
<path d="M983.18,340.91 L1809.54,354.54" fill="none" stroke="rgb(8, 8, 8)" stroke-width="40.00" stroke-opacity="1.00" stroke-linejoin="round"/>
<path d="M1809.54,354.54 C1809.54,354.54 1809.54,353.18 1809.54,353.18" fill="none" stroke="rgb(8, 8, 8)" stroke-width="40.00" stroke-opacity="1.00" stroke-linejoin="round"/>
<path d="M1809.54,353.18 L1662.27,613.64" fill="none" stroke="rgb(8, 8, 8)" stroke-width="40.00" stroke-opacity="1.00" stroke-linejoin="round"/>
<path d="M1662.27,613.64" fill="none" stroke="rgb(8, 8, 8)" stroke-width="40.00" stroke-opacity="1.00" stroke-linejoin="round"/>
<path d="M1662.27,613.64 L849.54,597.27" fill="none" stroke="rgb(8, 8, 8)" stroke-width="40.00" stroke-opacity="1.00" stroke-linejoin="round"/>
<path d="M849.54,597.27" fill="none" stroke="rgb(8, 8, 8)" stroke-width="40.00" stroke-opacity="1.00" stroke-linejoin="round"/>
<path d="M849.54,597.27 L1015.91,354.54" fill="none" stroke="rgb(8, 8, 8)" stroke-width="40.00" stroke-opacity="1.00" stroke-linejoin="round"/>
<path d="M1015.91,354.54" fill="none" stroke="rgb(8, 8, 8)" stroke-width="40.00" stroke-opacity="1.00" stroke-linejoin="round"/>
<path d="M1015.91,354.54 L1810.91,381.82" fill="none" stroke="rgb(8, 8, 8)" stroke-width="40.00" stroke-opacity="1.00" stroke-linejoin="round"/>
<path d="M1810.91,381.82" fill="none" stroke="rgb(8, 8, 8)" stroke-width="40.00" stroke-opacity="1.00" stroke-linejoin="round"/>
<path d="M1810.91,381.82 L1607.72,613.64" fill="none" stroke="rgb(8, 8, 8)" stroke-width="40.00" stroke-opacity="1.00" stroke-linejoin="round"/>
<path d="M1607.72,613.64" fill="none" stroke="rgb(8, 8, 8)" stroke-width="40.00" stroke-opacity="1.00" stroke-linejoin="round"/>
<path d="M1607.72,613.64 L822.27,564.54" fill="none" stroke="rgb(8, 8, 8)" stroke-width="40.00" stroke-opacity="1.00" stroke-linejoin="round"/>
<path d="M822.27,564.54" fill="none" stroke="rgb(8, 8, 8)" stroke-width="40.00" stroke-opacity="1.00" stroke-linejoin="round"/>
<path d="M822.27,564.54 L1043.18,366.82" fill="none" stroke="rgb(8, 8, 8)" stroke-width="40.00" stroke-opacity="1.00" stroke-linejoin="round"/>
<path d="M1043.18,366.82 C1043.18,366.82 1043.18,369.54 1043.18,369.54" fill="none" stroke="rgb(8, 8, 8)" stroke-width="40.00" stroke-opacity="1.00" stroke-linejoin="round"/>
<path d="M1043.18,369.54 L917.73,560.45" fill="none" stroke="rgb(8, 8, 8)" stroke-width="40.00" stroke-opacity="1.00" stroke-linejoin="round"/>
<path d="M917.73,560.45 C917.73,560.45 919.09,560.45 919.09,560.45" fill="none" stroke="rgb(8, 8, 8)" stroke-width="40.00" stroke-opacity="1.00" stroke-linejoin="round"/>
<path d="M919.09,560.45 L1105.91,361.36" fill="none" stroke="rgb(8, 8, 8)" stroke-width="40.00" stroke-opacity="1.00" stroke-linejoin="round"/>
<path d="M1105.91,361.36" fill="none" stroke="rgb(8, 8, 8)" stroke-width="40.00" stroke-opacity="1.00" stroke-linejoin="round"/>
<path d="M1105.91,361.36 L1776.81,414.54" fill="none" stroke="rgb(8, 8, 8)" stroke-width="40.00" stroke-opacity="1.00" stroke-linejoin="round"/>
<path d="M1776.81,414.54" fill="none" stroke="rgb(8, 8, 8)" stroke-width="40.00" stroke-opacity="1.00" stroke-linejoin="round"/>
<path d="M1776.81,414.54 L1030.91,384.54" fill="none" stroke="rgb(8, 8, 8)" stroke-width="40.00" stroke-opacity="1.00" stroke-linejoin="round"/>
<path d="M1030.91,384.54 C1030.91,384.54 1030.91,383.18 1030.91,383.18" fill="none" stroke="rgb(8, 8, 8)" stroke-width="40.00" stroke-opacity="1.00" stroke-linejoin="round"/>
<path d="M1030.91,383.18 L1775.45,443.18" fill="none" stroke="rgb(8, 8, 8)" stroke-width="40.00" stroke-opacity="1.00" stroke-linejoin="round"/>
<path d="M1775.45,443.18 C1775.45,443.18 1774.77,441.82 1774.77,441.82 C1774.09,442.50 1772.25,444.32 1772.04,444.54 C1770.86,445.81 1770.54,445.98 1769.31,445.91 C1768.97,445.88 1768.29,445.88 1767.27,445.91" fill="none" stroke="rgb(8, 8, 8)" stroke-width="40.00" stroke-opacity="1.00" stroke-linejoin="round"/>
<path d="M1767.27,445.91 L1550.45,606.82" fill="none" stroke="rgb(8, 8, 8)" stroke-width="40.00" stroke-opacity="1.00" stroke-linejoin="round"/>
<path d="M1550.45,606.82" fill="none" stroke="rgb(8, 8, 8)" stroke-width="40.00" stroke-opacity="1.00" stroke-linejoin="round"/>
<path d="M1550.45,606.82 L1712.72,432.27" fill="none" stroke="rgb(8, 8, 8)" stroke-width="40.00" stroke-opacity="1.00" stroke-linejoin="round"/>
<path d="M1712.72,432.27 C1712.72,432.27 1712.72,433.64 1712.72,433.64" fill="none" stroke="rgb(8, 8, 8)" stroke-width="40.00" stroke-opacity="1.00" stroke-linejoin="round"/>
<path d="M1712.72,433.64 L1734.54,471.82" fill="none" stroke="rgb(8, 8, 8)" stroke-width="40.00" stroke-opacity="1.00" stroke-linejoin="round"/>
<path d="M1734.54,471.82 C1734.54,471.82 1733.18,470.45 1733.18,470.45" fill="none" stroke="rgb(8, 8, 8)" stroke-width="40.00" stroke-opacity="1.00" stroke-linejoin="round"/>
<path d="M1733.18,470.45 L1067.72,398.18" fill="none" stroke="rgb(8, 8, 8)" stroke-width="40.00" stroke-opacity="1.00" stroke-linejoin="round"/>
<path d="M1067.72,398.18" fill="none" stroke="rgb(8, 8, 8)" stroke-width="40.00" stroke-opacity="1.00" stroke-linejoin="round"/>
<path d="M1104.54,421.36 C1104.54,421.36 1101.82,421.36 1101.82,421.36" fill="none" stroke="rgb(8, 8, 8)" stroke-width="40.00" stroke-opacity="1.00" stroke-linejoin="round"/>
<path d="M1101.82,421.36 L961.36,567.27" fill="none" stroke="rgb(8, 8, 8)" stroke-width="40.00" stroke-opacity="1.00" stroke-linejoin="round"/>
<path d="M961.36,567.27" fill="none" stroke="rgb(8, 8, 8)" stroke-width="40.00" stroke-opacity="1.00" stroke-linejoin="round"/>
<path d="M961.36,567.27 L1557.27,574.09" fill="none" stroke="rgb(8, 8, 8)" stroke-width="40.00" stroke-opacity="1.00" stroke-linejoin="round"/>
<path d="M1557.27,574.09" fill="none" stroke="rgb(8, 8, 8)" stroke-width="40.00" stroke-opacity="1.00" stroke-linejoin="round"/>
<path d="M1557.27,574.09 L1614.54,471.82" fill="none" stroke="rgb(8, 8, 8)" stroke-width="40.00" stroke-opacity="1.00" stroke-linejoin="round"/>
<path d="M1614.54,471.82" fill="none" stroke="rgb(8, 8, 8)" stroke-width="40.00" stroke-opacity="1.00" stroke-linejoin="round"/>
<path d="M1614.54,471.82 L1636.36,481.36" fill="none" stroke="rgb(8, 8, 8)" stroke-width="40.00" stroke-opacity="1.00" stroke-linejoin="round"/>
<path d="M1636.36,481.36" fill="none" stroke="rgb(8, 8, 8)" stroke-width="40.00" stroke-opacity="1.00" stroke-linejoin="round"/>
<path d="M1636.36,481.36 L1615.91,504.54" fill="none" stroke="rgb(8, 8, 8)" stroke-width="40.00" stroke-opacity="1.00" stroke-linejoin="round"/>
<path d="M1615.91,504.54" fill="none" stroke="rgb(8, 8, 8)" stroke-width="40.00" stroke-opacity="1.00" stroke-linejoin="round"/>
<path d="M1615.91,504.54 L1082.72,417.27" fill="none" stroke="rgb(8, 8, 8)" stroke-width="40.00" stroke-opacity="1.00" stroke-linejoin="round"/>
<path d="M1082.72,417.27" fill="none" stroke="rgb(8, 8, 8)" stroke-width="40.00" stroke-opacity="1.00" stroke-linejoin="round"/>
<path d="M1082.72,417.27 L1002.27,564.54" fill="none" stroke="rgb(8, 8, 8)" stroke-width="40.00" stroke-opacity="1.00" stroke-linejoin="round"/>
<path d="M1002.27,564.54 C1002.27,564.54 1002.27,565.91 1002.27,565.91" fill="none" stroke="rgb(8, 8, 8)" stroke-width="40.00" stroke-opacity="1.00" stroke-linejoin="round"/>
<path d="M1002.27,565.91 L1565.45,546.82" fill="none" stroke="rgb(8, 8, 8)" stroke-width="40.00" stroke-opacity="1.00" stroke-linejoin="round"/>
<path d="M1565.45,546.82" fill="none" stroke="rgb(8, 8, 8)" stroke-width="40.00" stroke-opacity="1.00" stroke-linejoin="round"/>
<path d="M1565.45,546.82 L1570.91,469.09" fill="none" stroke="rgb(8, 8, 8)" stroke-width="40.00" stroke-opacity="1.00" stroke-linejoin="round"/>
<path d="M1570.91,469.09" fill="none" stroke="rgb(8, 8, 8)" stroke-width="40.00" stroke-opacity="1.00" stroke-linejoin="round"/>
<path d="M1570.91,469.09 L1450.91,463.64" fill="none" stroke="rgb(8, 8, 8)" stroke-width="40.00" stroke-opacity="1.00" stroke-linejoin="round"/>
<path d="M1450.91,463.64 C1450.91,463.64 1450.91,465.00 1450.91,465.00" fill="none" stroke="rgb(8, 8, 8)" stroke-width="40.00" stroke-opacity="1.00" stroke-linejoin="round"/>
<path d="M1450.91,465.00 L1097.72,451.36" fill="none" stroke="rgb(8, 8, 8)" stroke-width="40.00" stroke-opacity="1.00" stroke-linejoin="round"/>
<path d="M1097.72,451.36" fill="none" stroke="rgb(8, 8, 8)" stroke-width="40.00" stroke-opacity="1.00" stroke-linejoin="round"/>
<path d="M1097.72,451.36 L1009.09,552.27" fill="none" stroke="rgb(8, 8, 8)" stroke-width="40.00" stroke-opacity="1.00" stroke-linejoin="round"/>
<path d="M1009.09,552.27 C1009.09,552.27 1009.09,553.64 1009.09,553.64" fill="none" stroke="rgb(8, 8, 8)" stroke-width="40.00" stroke-opacity="1.00" stroke-linejoin="round"/>
<path d="M1009.09,553.64 L1565.45,507.27" fill="none" stroke="rgb(8, 8, 8)" stroke-width="40.00" stroke-opacity="1.00" stroke-linejoin="round"/>
<path d="M1565.45,507.27" fill="none" stroke="rgb(8, 8, 8)" stroke-width="40.00" stroke-opacity="1.00" stroke-linejoin="round"/>
<path d="M1565.45,507.27 L1086.82,477.27" fill="none" stroke="rgb(8, 8, 8)" stroke-width="40.00" stroke-opacity="1.00" stroke-linejoin="round"/>
<path d="M1086.82,477.27 C1086.82,477.27 1086.82,475.91 1086.82,475.91" fill="none" stroke="rgb(8, 8, 8)" stroke-width="40.00" stroke-opacity="1.00" stroke-linejoin="round"/>
<path d="M1086.82,475.91 L1073.18,511.36" fill="none" stroke="rgb(8, 8, 8)" stroke-width="40.00" stroke-opacity="1.00" stroke-linejoin="round"/>
<path d="M1073.18,511.36 C1073.18,511.36 1074.54,511.36 1074.54,511.36" fill="none" stroke="rgb(8, 8, 8)" stroke-width="40.00" stroke-opacity="1.00" stroke-linejoin="round"/>
<path d="M1074.54,511.36 L1032.27,537.27" fill="none" stroke="rgb(8, 8, 8)" stroke-width="40.00" stroke-opacity="1.00" stroke-linejoin="round"/>
<path d="M1032.27,537.27 C1035.86,537.28 1043.73,537.18 1043.86,537.27 C1044.38,537.65 1044.63,538.39 1045.22,538.64 C1045.54,538.77 1046.22,538.77 1047.27,538.64" fill="none" stroke="rgb(8, 8, 8)" stroke-width="40.00" stroke-opacity="1.00" stroke-linejoin="round"/>
<path d="M1047.27,538.64 L1220.45,500.45" fill="none" stroke="rgb(8, 8, 8)" stroke-width="40.00" stroke-opacity="1.00" stroke-linejoin="round"/>
<path d="M1220.45,500.45 C1220.45,500.45 1230.00,500.45 1230.00,500.45" fill="none" stroke="rgb(8, 8, 8)" stroke-width="40.00" stroke-opacity="1.00" stroke-linejoin="round"/>
<path d="M1230.00,500.45 L1360.91,504.54" fill="none" stroke="rgb(8, 8, 8)" stroke-width="40.00" stroke-opacity="1.00" stroke-linejoin="round"/>
<path d="M1360.91,504.54 C1360.91,504.54 1359.54,504.54 1359.54,504.54" fill="none" stroke="rgb(8, 8, 8)" stroke-width="40.00" stroke-opacity="1.00" stroke-linejoin="round"/>
<path d="M1359.54,504.54 L1089.54,488.18" fill="none" stroke="rgb(8, 8, 8)" stroke-width="40.00" stroke-opacity="1.00" stroke-linejoin="round"/>
<path d="M1089.54,488.18" fill="none" stroke="rgb(8, 8, 8)" stroke-width="40.00" stroke-opacity="1.00" stroke-linejoin="round"/>
<path d="M772.67,656.00" fill="none" stroke="rgb(8, 8, 8)" stroke-width="17.00" stroke-opacity="1.00" stroke-linejoin="round"/>
<path d="M772.00,656.00" fill="none" stroke="rgb(8, 8, 8)" stroke-width="17.00" stroke-opacity="1.00" stroke-linejoin="round"/>
<path d="M884.30,444.78" fill="none" stroke="rgb(8, 8, 8)" stroke-width="17.00" stroke-opacity="1.00" stroke-linejoin="round"/>
<path d="M884.30,444.78 L749.81,514.65" fill="none" stroke="rgb(8, 8, 8)" stroke-width="17.00" stroke-opacity="1.00" stroke-linejoin="round"/>
<path d="M749.81,514.65" fill="none" stroke="rgb(8, 8, 8)" stroke-width="17.00" stroke-opacity="1.00" stroke-linejoin="round"/>
<path d="M749.81,514.65 L751.31,521.41" fill="none" stroke="rgb(8, 8, 8)" stroke-width="17.00" stroke-opacity="1.00" stroke-linejoin="round"/>
<path d="M751.31,521.41" fill="none" stroke="rgb(8, 8, 8)" stroke-width="17.00" stroke-opacity="1.00" stroke-linejoin="round"/>
<path d="M751.31,521.41 L883.55,460.56" fill="none" stroke="rgb(8, 8, 8)" stroke-width="17.00" stroke-opacity="1.00" stroke-linejoin="round"/>
<path d="M883.55,460.56 C883.55,460.56 883.55,459.80 883.55,459.80" fill="none" stroke="rgb(8, 8, 8)" stroke-width="17.00" stroke-opacity="1.00" stroke-linejoin="round"/>
<path d="M857.58,490.91 C857.58,490.91 858.18,490.91 858.18,490.91" fill="none" stroke="rgb(8, 8, 8)" stroke-width="17.00" stroke-opacity="1.00" stroke-linejoin="round"/>
<path d="M858.18,490.91 L749.09,521.21" fill="none" stroke="rgb(8, 8, 8)" stroke-width="17.00" stroke-opacity="1.00" stroke-linejoin="round"/>
<path d="M749.09,521.21" fill="none" stroke="rgb(8, 8, 8)" stroke-width="17.00" stroke-opacity="1.00" stroke-linejoin="round"/>
<path d="M747.22,521.82" fill="none" stroke="rgb(8, 8, 8)" stroke-width="17.00" stroke-opacity="1.00" stroke-linejoin="round"/>
<path d="M747.22,521.82 L704.19,495.18" fill="none" stroke="rgb(8, 8, 8)" stroke-width="17.00" stroke-opacity="1.00" stroke-linejoin="round"/>
<path d="M704.19,494.84" fill="none" stroke="rgb(8, 8, 8)" stroke-width="17.00" stroke-opacity="1.00" stroke-linejoin="round"/>
<path d="M750.37,511.85" fill="none" stroke="rgb(8, 8, 8)" stroke-width="17.00" stroke-opacity="1.00" stroke-linejoin="round"/>
<path d="M750.37,511.85 L706.67,494.81" fill="none" stroke="rgb(8, 8, 8)" stroke-width="17.00" stroke-opacity="1.00" stroke-linejoin="round"/>
<path d="M706.67,494.81" fill="none" stroke="rgb(8, 8, 8)" stroke-width="17.00" stroke-opacity="1.00" stroke-linejoin="round"/>
<path d="M706.67,494.81 L691.85,513.33" fill="none" stroke="rgb(8, 8, 8)" stroke-width="17.00" stroke-opacity="1.00" stroke-linejoin="round"/>
<path d="M691.85,513.33 C691.85,513.33 690.37,513.33 690.37,513.33" fill="none" stroke="rgb(8, 8, 8)" stroke-width="17.00" stroke-opacity="1.00" stroke-linejoin="round"/>
<path d="M690.37,513.33 L707.41,501.48" fill="none" stroke="rgb(8, 8, 8)" stroke-width="17.00" stroke-opacity="1.00" stroke-linejoin="round"/>
<path d="M707.41,501.48" fill="none" stroke="rgb(8, 8, 8)" stroke-width="17.00" stroke-opacity="1.00" stroke-linejoin="round"/>
<path d="M707.54,481.52" fill="none" stroke="rgb(255, 255, 255)" stroke-width="8.00" stroke-opacity="1.00" stroke-linejoin="round"/>
<path d="M707.54,481.52 L674.01,516.30" fill="none" stroke="rgb(255, 255, 255)" stroke-width="8.00" stroke-opacity="1.00" stroke-linejoin="round"/>
<path d="M674.01,516.30" fill="none" stroke="rgb(255, 255, 255)" stroke-width="8.00" stroke-opacity="1.00" stroke-linejoin="round"/>
<path d="M712.51,511.02 C712.51,511.02 711.89,511.02 711.89,511.02" fill="none" stroke="rgb(255, 255, 255)" stroke-width="8.00" stroke-opacity="1.00" stroke-linejoin="round"/>
<path d="M711.89,511.02 L659.42,529.96" fill="none" stroke="rgb(255, 255, 255)" stroke-width="8.00" stroke-opacity="1.00" stroke-linejoin="round"/>
<path d="M659.42,529.96" fill="none" stroke="rgb(255, 255, 255)" stroke-width="8.00" stroke-opacity="1.00" stroke-linejoin="round"/>
<path d="M713.75,512.10 C713.75,512.10 713.44,511.95 713.44,511.95" fill="none" stroke="rgb(255, 255, 255)" stroke-width="8.00" stroke-opacity="1.00" stroke-linejoin="round"/>
<path d="M713.44,511.95 L749.76,534.61" fill="none" stroke="rgb(255, 255, 255)" stroke-width="8.00" stroke-opacity="1.00" stroke-linejoin="round"/>
<path d="M749.76,534.61" fill="none" stroke="rgb(255, 255, 255)" stroke-width="8.00" stroke-opacity="1.00" stroke-linejoin="round"/>
<path d="M820.66,524.79" fill="none" stroke="rgb(255, 255, 255)" stroke-width="8.00" stroke-opacity="1.00" stroke-linejoin="round"/>
<path d="M820.66,524.79 L791.74,580.99" fill="none" stroke="rgb(255, 255, 255)" stroke-width="8.00" stroke-opacity="1.00" stroke-linejoin="round"/>
<path d="M791.74,580.99" fill="none" stroke="rgb(255, 255, 255)" stroke-width="8.00" stroke-opacity="1.00" stroke-linejoin="round"/>
<path d="M816.94,533.47" fill="none" stroke="rgb(255, 255, 255)" stroke-width="8.00" stroke-opacity="1.00" stroke-linejoin="round"/>
<path d="M816.94,533.47 L788.02,584.30" fill="none" stroke="rgb(255, 255, 255)" stroke-width="8.00" stroke-opacity="1.00" stroke-linejoin="round"/>
<path d="M788.02,584.30" fill="none" stroke="rgb(255, 255, 255)" stroke-width="8.00" stroke-opacity="1.00" stroke-linejoin="round"/>
<path d="M819.83,530.99" fill="none" stroke="rgb(255, 255, 255)" stroke-width="8.00" stroke-opacity="1.00" stroke-linejoin="round"/>
<path d="M819.83,530.99 L785.54,590.91" fill="none" stroke="rgb(255, 255, 255)" stroke-width="8.00" stroke-opacity="1.00" stroke-linejoin="round"/>
<path d="M785.54,590.91" fill="none" stroke="rgb(255, 255, 255)" stroke-width="8.00" stroke-opacity="1.00" stroke-linejoin="round"/>
<path d="M850.69,489.26 C850.69,489.26 850.96,488.71 850.96,488.71 C877.54,488.73 885.66,489.99 889.81,489.81 C890.88,489.75 898.87,490.28 899.45,490.36 C903.40,490.88 917.80,492.19 921.21,492.01 C921.53,491.99 934.70,493.25 938.57,493.11 C939.86,493.07 947.64,493.58 948.21,493.66 C951.05,494.29 960.24,495.01 984.85,495.87 C985.88,495.90 987.83,495.25 988.15,494.77 C988.15,494.77 993.66,493.11 993.66,493.11 C994.00,493.19 997.32,492.65 997.52,492.56 C998.12,491.96 1000.55,492.01 1000.83,492.01 C1000.83,492.01 1012.40,490.36 1012.40,490.36 C1012.88,489.70 1019.73,489.26 1021.76,488.71 C1025.55,487.60 1037.69,487.07 1038.29,487.05 C1038.57,486.78 1000.09,486.47 989.53,484.85 C982.42,484.15 970.33,484.40 966.39,483.75 C949.59,483.75 925.15,480.31 917.91,479.34 C917.27,479.25 915.67,478.97 915.43,478.79 C926.58,479.06 944.49,479.61 951.24,479.89 C955.73,479.86 958.11,480.52 958.13,480.44" fill="none" stroke="rgb(8, 8, 8)" stroke-width="8.00" stroke-opacity="1.00" stroke-linejoin="round"/>
<path d="M985.67,482.09 C985.67,482.09 985.40,482.09 985.40,482.09 C985.40,482.09 984.30,482.64 984.30,482.64 C984.30,482.64 983.20,483.75 983.20,483.75 C983.20,483.75 981.54,483.75 981.54,483.75 C981.52,483.79 976.98,485.47 973.83,485.95 C973.58,485.99 970.38,487.53 969.97,487.60 C969.38,487.60 965.76,488.51 965.56,488.71 C965.22,488.83 962.08,489.26 961.43,489.81" fill="none" stroke="rgb(8, 8, 8)" stroke-width="8.00" stroke-opacity="1.00" stroke-linejoin="round"/>
<path d="M1867.52,327.57 C1867.52,327.57 1866.77,328.32 1866.77,328.32 C1866.77,328.32 1866.27,329.33 1866.27,329.33 C1866.27,329.33 1866.27,331.33 1866.27,331.33 C1866.27,331.33 1865.77,334.34 1865.77,334.34 C1865.77,334.34 1864.76,337.84 1864.76,337.84 C1864.76,337.84 1864.26,339.84 1864.26,339.84 C1864.26,339.84 1863.26,342.35 1863.26,342.35 C1863.26,342.35 1862.76,344.35 1862.76,344.35 C1862.76,344.35 1862.26,347.36 1862.26,347.36 C1862.26,347.36 1861.76,348.86 1861.76,348.86 C1861.76,348.86 1861.26,349.86 1861.26,349.86 C1861.26,349.86 1860.76,351.62 1860.76,351.62" fill="none" stroke="rgb(8, 8, 8)" stroke-width="12.00" stroke-opacity="1.00" stroke-linejoin="round"/>
<path d="M765.45,659.09" fill="none" stroke="rgb(8, 8, 8)" stroke-width="7.00" stroke-opacity="1.00" stroke-linejoin="round"/>
<path d="M766.09,662.17 C766.09,662.17 768.52,661.59 768.52,661.59 C768.52,661.59 774.39,656.87 774.39,656.87 C774.39,656.87 771.38,657.59 771.38,657.59 C771.38,657.59 770.52,658.16 770.52,658.16 C770.52,658.16 768.52,659.30 768.52,659.30 C768.52,659.30 766.80,660.59 766.80,660.59 C766.80,660.59 768.23,661.31 768.23,661.31 C768.23,661.31 771.10,660.45 771.10,660.45 C771.10,660.45 772.24,659.88 772.24,659.88 C772.24,659.88 773.96,659.59 773.96,659.59 C773.96,659.59 779.25,657.59 779.25,657.59" fill="none" stroke="rgb(8, 8, 8)" stroke-width="7.00" stroke-opacity="1.00" stroke-linejoin="round"/>
</g>
</svg>
