<?xml version="1.0" encoding="UTF-8" standalone="no"?>
<!DOCTYPE svg PUBLIC "-//W3C//DTD SVG 1.1//EN" "http://www.w3.org/Graphics/SVG/1.1/DTD/svg11.dtd">
<svg width="960.00" height="540.00" viewBox="0.00 0.00 1920.00 1080.00" xmlns="http://www.w3.org/2000/svg" xmlns:xlink="http://www.w3.org/1999/xlink">
<g stroke-linecap="round" id="Projects">
<path d="M1244.97,1053.24" fill="none" stroke="rgb(94, 94, 94)" stroke-width="7.00" stroke-opacity="1.00" stroke-linejoin="round"/>
<path d="M1244.97,1053.24 L1339.26,1011.37" fill="none" stroke="rgb(94, 94, 94)" stroke-width="7.00" stroke-opacity="1.00" stroke-linejoin="round"/>
<path d="M1339.26,1011.37" fill="none" stroke="rgb(94, 94, 94)" stroke-width="7.00" stroke-opacity="1.00" stroke-linejoin="round"/>
<path d="M1339.26,1011.37 L1355.22,1002.39" fill="none" stroke="rgb(94, 94, 94)" stroke-width="7.00" stroke-opacity="1.00" stroke-linejoin="round"/>
<path d="M1355.22,1002.39" fill="none" stroke="rgb(94, 94, 94)" stroke-width="7.00" stroke-opacity="1.00" stroke-linejoin="round"/>
<path d="M1355.22,1002.39 L1336.73,995.91" fill="none" stroke="rgb(94, 94, 94)" stroke-width="7.00" stroke-opacity="1.00" stroke-linejoin="round"/>
<path d="M1315.19,988.37 L1308.89,986.16" fill="none" stroke="rgb(94, 94, 94)" stroke-width="7.00" stroke-opacity="1.00" stroke-linejoin="round"/>
<path d="M1308.89,986.16" fill="none" stroke="rgb(94, 94, 94)" stroke-width="7.00" stroke-opacity="1.00" stroke-linejoin="round"/>
<path d="M1338.65,993.21" fill="none" stroke="rgb(94, 94, 94)" stroke-width="7.00" stroke-opacity="1.00" stroke-linejoin="round"/>
<path d="M1337.35,991.70" fill="none" stroke="rgb(94, 94, 94)" stroke-width="7.00" stroke-opacity="1.00" stroke-linejoin="round"/>
<path d="M1343.38,990.46" fill="none" stroke="rgb(94, 94, 94)" stroke-width="7.00" stroke-opacity="1.00" stroke-linejoin="round"/>
<path d="M1343.38,990.46 L1370.48,1002.69" fill="none" stroke="rgb(94, 94, 94)" stroke-width="7.00" stroke-opacity="1.00" stroke-linejoin="round"/>
<path d="M1370.48,1002.69" fill="none" stroke="rgb(94, 94, 94)" stroke-width="7.00" stroke-opacity="1.00" stroke-linejoin="round"/>
<path d="M1370.48,1002.69 L1342.16,995.46" fill="none" stroke="rgb(94, 94, 94)" stroke-width="7.00" stroke-opacity="1.00" stroke-linejoin="round"/>
<path d="M1342.16,995.46 C1342.16,995.46 1341.88,995.44 1341.88,995.44" fill="none" stroke="rgb(94, 94, 94)" stroke-width="7.00" stroke-opacity="1.00" stroke-linejoin="round"/>
<path d="M1341.88,995.44 L1363.15,1006.10" fill="none" stroke="rgb(94, 94, 94)" stroke-width="7.00" stroke-opacity="1.00" stroke-linejoin="round"/>
<path d="M1363.15,1006.10 C1363.15,1006.10 1363.13,1006.38 1363.13,1006.38" fill="none" stroke="rgb(94, 94, 94)" stroke-width="7.00" stroke-opacity="1.00" stroke-linejoin="round"/>
<path d="M1363.13,1006.38 L1244.13,1057.05" fill="none" stroke="rgb(94, 94, 94)" stroke-width="7.00" stroke-opacity="1.00" stroke-linejoin="round"/>
<path d="M1244.13,1057.05" fill="none" stroke="rgb(94, 94, 94)" stroke-width="7.00" stroke-opacity="1.00" stroke-linejoin="round"/>
<path d="M1252.60,1058.07" fill="none" stroke="rgb(94, 94, 94)" stroke-width="25.00" stroke-opacity="1.00" stroke-linejoin="round"/>
<path d="M1252.60,1058.07 L1384.54,1028.02" fill="none" stroke="rgb(94, 94, 94)" stroke-width="25.00" stroke-opacity="1.00" stroke-linejoin="round"/>
<path d="M1384.54,1028.02" fill="none" stroke="rgb(94, 94, 94)" stroke-width="25.00" stroke-opacity="1.00" stroke-linejoin="round"/>
<path d="M1384.54,1028.02 L1367.36,1018.96" fill="none" stroke="rgb(94, 94, 94)" stroke-width="25.00" stroke-opacity="1.00" stroke-linejoin="round"/>
<path d="M1367.36,1018.96" fill="none" stroke="rgb(94, 94, 94)" stroke-width="25.00" stroke-opacity="1.00" stroke-linejoin="round"/>
<path d="M1367.36,1018.96 L1361.06,1014.99" fill="none" stroke="rgb(94, 94, 94)" stroke-width="25.00" stroke-opacity="1.00" stroke-linejoin="round"/>
<path d="M1361.06,1014.99" fill="none" stroke="rgb(94, 94, 94)" stroke-width="25.00" stroke-opacity="1.00" stroke-linejoin="round"/>
<path d="M1361.06,1014.99 L1309.93,1034.05" fill="none" stroke="rgb(94, 94, 94)" stroke-width="25.00" stroke-opacity="1.00" stroke-linejoin="round"/>
<path d="M1309.93,1034.05" fill="none" stroke="rgb(94, 94, 94)" stroke-width="25.00" stroke-opacity="1.00" stroke-linejoin="round"/>
<path d="M1372.19,1011.56 C1372.19,1011.56 1372.03,1013.68 1372.03,1013.68 C1372.03,1013.68 1372.92,1014.72 1372.92,1014.72 C1372.92,1014.72 1376.31,1016.14 1376.31,1016.14 C1376.31,1016.14 1377.44,1016.61 1377.44,1016.61 C1377.44,1016.61 1378.57,1017.08 1378.57,1017.08 C1378.57,1017.08 1383.47,1019.01 1383.47,1019.01 C1383.47,1019.01 1384.60,1019.48 1384.60,1019.48 C1384.60,1019.48 1386.50,1020.01 1386.50,1020.01 C1386.50,1020.01 1387.60,1020.87 1387.60,1020.87 C1387.60,1020.87 1389.89,1021.43 1389.89,1021.43 C1389.89,1021.43 1391.02,1021.90 1391.02,1021.90 C1391.02,1021.90 1392.12,1022.76 1392.12,1022.76 C1392.12,1022.76 1393.27,1022.85 1393.27,1022.85 C1397.44,1025.25 1401.46,1025.40 1402.01,1025.45 C1402.01,1025.45 1405.42,1026.48 1405.42,1026.48" fill="none" stroke="rgb(94, 94, 94)" stroke-width="25.00" stroke-opacity="1.00" stroke-linejoin="round"/>
<path d="M1419.83,940.91" fill="none" stroke="rgb(94, 94, 94)" stroke-width="25.00" stroke-opacity="1.00" stroke-linejoin="round"/>
<path d="M1419.83,940.91 L1456.53,924.32" fill="none" stroke="rgb(94, 94, 94)" stroke-width="25.00" stroke-opacity="1.00" stroke-linejoin="round"/>
<path d="M1533.59,893.40 L1535.24,867.40" fill="none" stroke="rgb(94, 94, 94)" stroke-width="25.00" stroke-opacity="1.00" stroke-linejoin="round"/>
<path d="M1546.62,883.60 L1572.67,858.79" fill="none" stroke="rgb(94, 94, 94)" stroke-width="25.00" stroke-opacity="1.00" stroke-linejoin="round"/>
<path d="M1558.76,880.26 L1584.07,864.64" fill="none" stroke="rgb(94, 94, 94)" stroke-width="25.00" stroke-opacity="1.00" stroke-linejoin="round"/>
<path d="M1561.60,876.79 L1588.43,864.84" fill="none" stroke="rgb(94, 94, 94)" stroke-width="25.00" stroke-opacity="1.00" stroke-linejoin="round"/>
<path d="M1566.59,872.90 L1596.40,869.77" fill="none" stroke="rgb(94, 94, 94)" stroke-width="25.00" stroke-opacity="1.00" stroke-linejoin="round"/>
<path d="M1595.83,861.36 L1597.44,860.63" fill="none" stroke="rgb(94, 94, 94)" stroke-width="25.00" stroke-opacity="1.00" stroke-linejoin="round"/>
<path d="M1597.44,860.63" fill="none" stroke="rgb(94, 94, 94)" stroke-width="25.00" stroke-opacity="1.00" stroke-linejoin="round"/>
<path d="M1591.01,877.14 C1591.01,877.23 1594.65,876.06 1596.33,875.26 C1596.39,875.23 1607.32,871.73 1608.89,870.82 C1609.03,870.74 1609.42,870.58 1609.76,870.26 C1609.76,870.26 1611.89,869.59 1611.89,869.59 C1611.89,869.59 1616.60,867.46 1616.60,867.46 C1616.60,867.46 1619.17,866.41 1619.17,866.41 C1619.17,866.41 1622.15,865.39 1622.15,865.39 C1622.15,865.39 1628.20,862.12 1628.20,862.12 C1628.20,862.12 1630.35,861.04 1630.35,861.04 C1630.35,861.04 1631.65,860.30 1631.65,860.30 C1631.65,860.30 1635.81,857.30 1635.81,857.30" fill="none" stroke="rgb(94, 94, 94)" stroke-width="25.00" stroke-opacity="1.00" stroke-linejoin="round"/>
<path d="M1621.62,864.11 C1621.62,864.11 1610.51,871.35 1610.51,871.35 C1610.51,871.35 1594.44,881.12 1594.44,881.12 C1594.44,881.12 1590.55,883.32 1590.55,883.32" fill="none" stroke="rgb(94, 94, 94)" stroke-width="25.00" stroke-opacity="1.00" stroke-linejoin="round"/>
<path d="M1560.82,895.98 C1559.93,896.56 1553.64,898.02 1552.75,898.29 C1552.32,898.47 1546.39,900.93 1546.11,901.11" fill="none" stroke="rgb(94, 94, 94)" stroke-width="25.00" stroke-opacity="1.00" stroke-linejoin="round"/>
<path d="M1541.06,904.87" fill="none" stroke="rgb(94, 94, 94)" stroke-width="25.00" stroke-opacity="1.00" stroke-linejoin="round"/>
<path d="M1542.36,904.14 C1542.36,904.14 1555.81,897.46 1555.81,897.46" fill="none" stroke="rgb(94, 94, 94)" stroke-width="25.00" stroke-opacity="1.00" stroke-linejoin="round"/>
<path d="M1598.60,882.00 C1598.71,882.00 1605.59,878.48 1605.63,878.44 C1605.77,878.29 1614.52,872.31 1615.06,871.49 C1615.06,871.49 1616.13,870.95 1616.13,870.95" fill="none" stroke="rgb(94, 94, 94)" stroke-width="25.00" stroke-opacity="1.00" stroke-linejoin="round"/>
<path d="M1611.34,882.40 C1611.34,882.40 1609.58,885.31 1609.58,885.31" fill="none" stroke="rgb(94, 94, 94)" stroke-width="25.00" stroke-opacity="1.00" stroke-linejoin="round"/>
<path d="M1601.95,899.96 C1601.95,899.96 1595.08,888.19 1595.08,888.19" fill="none" stroke="rgb(94, 94, 94)" stroke-width="25.00" stroke-opacity="1.00" stroke-linejoin="round"/>
<path d="M1576.03,911.93 C1576.03,911.93 1567.73,915.54 1567.73,915.54" fill="none" stroke="rgb(94, 94, 94)" stroke-width="25.00" stroke-opacity="1.00" stroke-linejoin="round"/>
<path d="M1539.64,923.82" fill="none" stroke="rgb(94, 94, 94)" stroke-width="25.00" stroke-opacity="1.00" stroke-linejoin="round"/>
<path d="M1540.45,926.79 C1540.45,926.79 1544.31,925.01 1544.31,925.01" fill="none" stroke="rgb(94, 94, 94)" stroke-width="25.00" stroke-opacity="1.00" stroke-linejoin="round"/>
<path d="M1551.98,922.27 C1551.98,922.27 1554.57,920.81 1554.57,920.81 C1554.57,920.81 1557.55,919.79 1557.55,919.79 C1557.55,919.79 1561.41,918.00 1561.41,918.00 C1561.41,918.00 1563.57,916.92 1563.57,916.92 C1563.57,916.92 1565.31,915.81 1565.31,915.81 C1565.31,915.81 1567.91,914.35 1567.91,914.35 C1567.91,914.35 1570.06,913.27 1570.06,913.27 C1570.06,913.27 1571.14,912.73 1571.14,912.73 C1571.14,912.73 1572.91,911.20 1572.91,911.20 C1572.91,911.20 1575.15,908.89 1575.15,908.89 C1575.15,908.89 1576.51,907.33 1576.51,907.33 C1576.51,907.33 1577.46,905.75 1577.46,905.75 C1577.46,905.75 1579.24,904.22 1579.24,904.22 C1579.24,904.22 1580.66,901.84 1580.66,901.84 C1580.66,901.84 1581.96,901.11 1581.96,901.11" fill="none" stroke="rgb(94, 94, 94)" stroke-width="25.00" stroke-opacity="1.00" stroke-linejoin="round"/>
<path d="M1609.48,890.12 C1609.79,890.22 1614.05,888.85 1614.39,888.63 C1614.44,888.60 1614.51,888.54 1614.61,888.44 C1614.61,888.44 1622.66,886.15 1622.66,886.15 C1622.66,886.15 1623.92,885.83 1623.92,885.83 C1623.92,885.83 1632.44,882.74 1632.44,882.74 C1632.44,882.74 1644.21,877.83 1644.21,877.83" fill="none" stroke="rgb(94, 94, 94)" stroke-width="25.00" stroke-opacity="1.00" stroke-linejoin="round"/>
<path d="M1632.96,886.92 C1632.96,886.92 1630.30,889.21 1630.30,889.21 C1630.30,889.21 1626.34,892.23 1626.34,892.23 C1626.34,892.23 1619.36,896.88 1619.36,896.88 C1619.36,896.88 1616.28,899.34 1616.28,899.34 C1615.96,899.22 1611.82,901.24 1611.56,901.47 C1611.41,901.56 1610.98,901.81 1610.26,902.21 C1610.26,902.21 1606.84,903.61 1606.84,903.61" fill="none" stroke="rgb(94, 94, 94)" stroke-width="25.00" stroke-opacity="1.00" stroke-linejoin="round"/>
<path d="M1590.94,911.11 C1590.94,911.11 1587.93,912.54 1587.93,912.54 C1587.93,912.54 1583.53,915.94 1583.53,915.94 C1583.53,915.94 1580.11,917.34 1580.11,917.34 C1580.11,917.34 1578.37,918.45 1578.37,918.45 C1578.37,918.45 1577.10,918.77 1577.10,918.77 C1577.10,918.77 1575.39,919.47 1575.39,919.47 C1575.39,919.47 1572.00,920.46 1572.00,920.46 C1572.00,920.46 1569.91,920.72 1569.91,920.72 C1569.91,920.72 1569.03,921.48 1569.03,921.48 C1569.03,921.48 1567.35,921.77 1567.35,921.77 C1567.35,921.77 1565.61,922.88 1565.61,922.88 C1565.61,922.88 1563.96,922.75 1563.96,922.75 C1563.96,922.75 1562.63,923.90 1562.63,923.90 C1562.63,923.90 1560.98,923.77 1560.98,923.77 C1560.98,923.77 1558.83,924.85 1558.83,924.85 C1558.83,924.85 1557.59,924.76 1557.59,924.76 C1557.59,924.76 1556.32,925.08 1556.32,925.08 C1556.32,925.08 1555.06,925.40 1555.06,925.40" fill="none" stroke="rgb(94, 94, 94)" stroke-width="25.00" stroke-opacity="1.00" stroke-linejoin="round"/>
<path d="M1550.78,927.15 C1550.78,927.15 1549.51,927.47 1549.51,927.47 C1549.51,927.47 1548.22,928.20 1548.22,928.20 C1548.22,928.20 1546.95,928.52 1546.95,928.52" fill="none" stroke="rgb(94, 94, 94)" stroke-width="25.00" stroke-opacity="1.00" stroke-linejoin="round"/>
<path d="M1534.98,935.08" fill="none" stroke="rgb(94, 94, 94)" stroke-width="25.00" stroke-opacity="1.00" stroke-linejoin="round"/>
<path d="M1534.98,935.08 L1667.55,885.54" fill="none" stroke="rgb(94, 94, 94)" stroke-width="25.00" stroke-opacity="1.00" stroke-linejoin="round"/>
<path d="M1667.55,885.54" fill="none" stroke="rgb(94, 94, 94)" stroke-width="25.00" stroke-opacity="1.00" stroke-linejoin="round"/>
<path d="M1667.55,885.54 L1675.60,818.71" fill="none" stroke="rgb(94, 94, 94)" stroke-width="25.00" stroke-opacity="1.00" stroke-linejoin="round"/>
<path d="M1675.60,818.71" fill="none" stroke="rgb(94, 94, 94)" stroke-width="25.00" stroke-opacity="1.00" stroke-linejoin="round"/>
<path d="M1675.60,818.71 L1562.49,874.99" fill="none" stroke="rgb(94, 94, 94)" stroke-width="25.00" stroke-opacity="1.00" stroke-linejoin="round"/>
<path d="M1562.49,874.99" fill="none" stroke="rgb(94, 94, 94)" stroke-width="25.00" stroke-opacity="1.00" stroke-linejoin="round"/>
<path d="M1562.49,874.99 L1586.29,894.11" fill="none" stroke="rgb(94, 94, 94)" stroke-width="25.00" stroke-opacity="1.00" stroke-linejoin="round"/>
<path d="M1586.29,894.11" fill="none" stroke="rgb(94, 94, 94)" stroke-width="25.00" stroke-opacity="1.00" stroke-linejoin="round"/>
<path d="M1586.29,894.11 L1652.17,849.72" fill="none" stroke="rgb(94, 94, 94)" stroke-width="25.00" stroke-opacity="1.00" stroke-linejoin="round"/>
<path d="M1652.17,849.72" fill="none" stroke="rgb(94, 94, 94)" stroke-width="25.00" stroke-opacity="1.00" stroke-linejoin="round"/>
<path d="M1652.17,849.72 L1649.72,867.24" fill="none" stroke="rgb(94, 94, 94)" stroke-width="25.00" stroke-opacity="1.00" stroke-linejoin="round"/>
<path d="M1649.72,867.24 C1649.72,867.24 1649.66,867.99 1649.66,867.99" fill="none" stroke="rgb(94, 94, 94)" stroke-width="25.00" stroke-opacity="1.00" stroke-linejoin="round"/>
<path d="M1649.66,867.99 L1652.26,873.46" fill="none" stroke="rgb(94, 94, 94)" stroke-width="25.00" stroke-opacity="1.00" stroke-linejoin="round"/>
<path d="M1652.28,873.27 C1652.28,873.27 1653.48,872.23 1653.48,872.23 C1653.48,872.23 1653.94,871.14 1653.94,871.14 C1653.94,871.14 1654.36,870.60 1654.36,870.60" fill="none" stroke="rgb(94, 94, 94)" stroke-width="25.00" stroke-opacity="1.00" stroke-linejoin="round"/>
<path d="M1654.36,870.60 L1663.30,841.89" fill="none" stroke="rgb(94, 94, 94)" stroke-width="25.00" stroke-opacity="1.00" stroke-linejoin="round"/>
<path d="M1663.30,841.89" fill="none" stroke="rgb(94, 94, 94)" stroke-width="25.00" stroke-opacity="1.00" stroke-linejoin="round"/>
<path d="M1374.47,990.49" fill="none" stroke="rgb(94, 94, 94)" stroke-width="25.00" stroke-opacity="1.00" stroke-linejoin="round"/>
<path d="M1374.47,990.49 L1544.05,930.66" fill="none" stroke="rgb(94, 94, 94)" stroke-width="25.00" stroke-opacity="1.00" stroke-linejoin="round"/>
<path d="M1544.05,930.66" fill="none" stroke="rgb(94, 94, 94)" stroke-width="25.00" stroke-opacity="1.00" stroke-linejoin="round"/>
<path d="M1558.64,893.74 C1558.64,893.74 1556.86,894.63 1556.86,894.63 C1556.86,894.63 1548.33,898.79 1548.33,898.79 C1548.33,898.79 1542.98,901.64 1542.98,901.64 C1542.98,901.64 1535.84,905.55 1535.84,905.55 C1534.28,905.72 1526.40,910.32 1523.21,911.79 C1517.58,914.51 1503.12,920.98 1502.99,921.06 C1502.04,921.65 1489.63,926.16 1487.43,927.59 C1485.28,928.99 1476.01,932.54 1475.29,934.21 C1475.29,934.21 1472.26,935.70 1472.26,935.70 C1472.26,935.70 1470.42,937.44 1470.42,937.44 C1470.42,937.44 1462.86,942.35 1462.86,942.35 C1462.86,942.35 1461.81,942.62 1461.81,942.62 C1461.81,942.62 1456.47,945.30 1456.47,945.30 C1456.47,945.30 1455.40,945.90 1455.40,945.90 C1455.40,945.90 1453.23,947.45 1453.23,947.45 C1453.23,947.45 1452.16,948.05 1452.16,948.05 C1452.16,948.05 1450.35,949.29 1450.35,949.29 C1450.35,949.29 1446.71,952.10 1446.71,952.10 C1446.71,952.10 1445.62,953.04 1445.62,953.04 C1445.62,953.04 1443.63,954.43 1443.63,954.43 C1443.63,954.43 1442.53,955.38 1442.53,955.38 C1442.53,955.38 1439.91,958.26 1439.91,958.26 C1439.91,958.26 1438.79,959.55 1438.79,959.55 C1438.79,959.55 1432.14,963.67 1432.14,963.67 C1432.14,963.67 1430.70,964.59 1430.70,964.59 C1430.70,964.59 1430.65,963.05 1430.65,963.05 C1430.65,963.05 1431.46,961.39 1431.46,961.39 C1432.12,960.66 1433.43,959.56 1434.95,958.23 C1436.81,956.63 1440.69,954.73 1442.83,953.69 C1442.90,953.66 1451.48,950.35 1452.88,949.82 C1462.96,946.40 1480.43,941.23 1483.01,940.79 C1489.28,939.46 1504.14,936.16 1505.46,935.97 C1508.47,935.53 1524.66,930.24 1525.10,929.91 C1528.05,927.73 1536.77,925.96 1538.71,924.26 C1540.50,923.20 1542.56,921.94 1543.55,921.37 C1545.17,920.38 1551.07,915.50 1551.55,915.13 C1551.84,914.76 1555.40,910.93 1555.82,910.82 C1555.82,910.82 1556.97,909.20 1556.97,909.20 C1556.97,909.20 1557.89,908.24 1557.89,908.24 C1557.89,908.24 1559.21,906.63 1559.21,906.63 C1559.21,906.63 1560.00,905.32 1560.00,905.32 C1560.00,905.32 1560.81,903.66 1560.81,903.66 C1560.81,903.66 1561.57,902.69 1561.57,902.69 C1561.57,902.69 1560.05,902.41 1560.05,902.41 C1560.05,902.41 1557.58,903.25 1557.58,903.25 C1557.14,903.56 1543.97,908.90 1543.97,908.90 C1542.97,909.14 1519.50,918.16 1518.58,918.64 C1513.51,921.30 1506.52,922.13 1500.21,926.16 C1492.74,929.79 1486.90,933.07 1485.28,933.42 C1484.49,933.59 1468.37,940.42 1467.12,940.28 C1467.12,940.28 1465.00,941.14 1465.00,941.14 C1465.00,941.14 1466.46,940.06 1466.46,940.06 C1466.46,940.06 1467.21,939.09 1467.21,939.09 C1467.70,938.90 1469.92,937.23 1471.19,936.30 C1471.49,936.18 1476.19,933.60 1478.31,932.73 C1479.73,931.95 1497.43,925.56 1503.09,924.32 C1512.26,921.64 1530.19,915.66 1533.79,914.47 C1545.30,911.12 1561.26,904.82 1562.63,904.49 C1562.63,904.49 1566.07,902.01 1566.07,902.01 C1566.07,902.01 1566.83,901.04 1566.83,901.04 C1566.83,901.04 1568.68,899.12 1568.68,899.12 C1568.68,899.12 1569.44,898.15 1569.44,898.15 C1569.44,898.15 1569.91,896.47 1569.91,896.47 C1569.91,896.47 1571.24,892.46 1571.24,892.46 C1571.24,892.46 1570.23,892.22 1570.23,892.22" fill="none" stroke="rgb(94, 94, 94)" stroke-width="25.00" stroke-opacity="1.00" stroke-linejoin="round"/>
<path d="M1572.26,869.77" fill="none" stroke="rgb(94, 94, 94)" stroke-width="25.00" stroke-opacity="1.00" stroke-linejoin="round"/>
<path d="M1572.26,869.77 L1436.88,934.92" fill="none" stroke="rgb(94, 94, 94)" stroke-width="25.00" stroke-opacity="1.00" stroke-linejoin="round"/>
<path d="M1436.88,934.92" fill="none" stroke="rgb(94, 94, 94)" stroke-width="25.00" stroke-opacity="1.00" stroke-linejoin="round"/>
<path d="M1529.79,860.75" fill="none" stroke="rgb(255, 255, 255)" stroke-width="25.00" stroke-opacity="1.00" stroke-linejoin="round"/>
<path d="M1526.66,861.37 C1526.66,861.37 1525.56,862.31 1525.56,862.31 C1525.56,862.31 1522.61,865.17 1522.61,865.17 C1522.61,865.17 1524.47,865.48 1524.47,865.48 C1524.47,865.48 1528.29,864.74 1528.29,864.74 C1528.29,864.74 1529.34,864.48 1529.34,864.48 C1529.34,864.48 1532.56,862.67 1532.56,862.67 C1532.56,862.67 1536.04,859.68 1536.04,859.68" fill="none" stroke="rgb(255, 255, 255)" stroke-width="25.00" stroke-opacity="1.00" stroke-linejoin="round"/>
<path d="M1306.54,987.40" fill="none" stroke="rgb(94, 94, 94)" stroke-width="5.00" stroke-opacity="1.00" stroke-linejoin="round"/>
<path d="M1306.54,987.40 L1360.88,1006.21" fill="none" stroke="rgb(94, 94, 94)" stroke-width="5.00" stroke-opacity="1.00" stroke-linejoin="round"/>
<path d="M1360.88,1006.21" fill="none" stroke="rgb(94, 94, 94)" stroke-width="5.00" stroke-opacity="1.00" stroke-linejoin="round"/>
<path d="M1345.79,1003.66" fill="none" stroke="rgb(94, 94, 94)" stroke-width="5.00" stroke-opacity="1.00" stroke-linejoin="round"/>
<path d="M1345.79,1003.66 L1237.16,1055.48" fill="none" stroke="rgb(94, 94, 94)" stroke-width="5.00" stroke-opacity="1.00" stroke-linejoin="round"/>
<path d="M1237.16,1055.48" fill="none" stroke="rgb(94, 94, 94)" stroke-width="5.00" stroke-opacity="1.00" stroke-linejoin="round"/>
<path d="M1237.16,1055.48 L1176.21,1081.86" fill="none" stroke="rgb(94, 94, 94)" stroke-width="5.00" stroke-opacity="1.00" stroke-linejoin="round"/>
<path d="M1176.21,1081.86 C1176.21,1081.86 1176.55,1081.92 1176.55,1081.92" fill="none" stroke="rgb(94, 94, 94)" stroke-width="5.00" stroke-opacity="1.00" stroke-linejoin="round"/>
<path d="M1176.55,1081.92 L1166.44,1087.40" fill="none" stroke="rgb(94, 94, 94)" stroke-width="5.00" stroke-opacity="1.00" stroke-linejoin="round"/>
<path d="M1166.44,1087.40" fill="none" stroke="rgb(94, 94, 94)" stroke-width="5.00" stroke-opacity="1.00" stroke-linejoin="round"/>
<path d="M1166.44,1087.40 L1272.66,1063.76" fill="none" stroke="rgb(94, 94, 94)" stroke-width="5.00" stroke-opacity="1.00" stroke-linejoin="round"/>
<path d="M1272.66,1063.76" fill="none" stroke="rgb(94, 94, 94)" stroke-width="5.00" stroke-opacity="1.00" stroke-linejoin="round"/>
<path d="M1272.66,1063.76 L1447.56,1027.56" fill="none" stroke="rgb(94, 94, 94)" stroke-width="5.00" stroke-opacity="1.00" stroke-linejoin="round"/>
<path d="M1447.56,1027.56" fill="none" stroke="rgb(94, 94, 94)" stroke-width="5.00" stroke-opacity="1.00" stroke-linejoin="round"/>
<path d="M1447.56,1027.56 L1380.61,998.61" fill="none" stroke="rgb(94, 94, 94)" stroke-width="5.00" stroke-opacity="1.00" stroke-linejoin="round"/>
<path d="M1380.61,998.61" fill="none" stroke="rgb(94, 94, 94)" stroke-width="5.00" stroke-opacity="1.00" stroke-linejoin="round"/>
<path d="M1387.21,1035.66 C1387.21,1035.66 1387.29,1035.93 1387.29,1035.93 C1387.29,1035.93 1388.15,1036.07 1388.15,1036.07" fill="none" stroke="rgb(94, 94, 94)" stroke-width="5.00" stroke-opacity="1.00" stroke-linejoin="round"/>
<path d="M1388.15,1036.07 L1398.42,1033.70" fill="none" stroke="rgb(94, 94, 94)" stroke-width="5.00" stroke-opacity="1.00" stroke-linejoin="round"/>
<path d="M1398.42,1033.70" fill="none" stroke="rgb(94, 94, 94)" stroke-width="5.00" stroke-opacity="1.00" stroke-linejoin="round"/>
<path d="M1398.42,1033.70 L1440.32,1025.36" fill="none" stroke="rgb(94, 94, 94)" stroke-width="5.00" stroke-opacity="1.00" stroke-linejoin="round"/>
<path d="M1440.32,1025.36 C1440.32,1025.36 1440.07,1025.32 1440.07,1025.32" fill="none" stroke="rgb(94, 94, 94)" stroke-width="5.00" stroke-opacity="1.00" stroke-linejoin="round"/>
<path d="M1440.07,1025.32 L1384.87,1039.08" fill="none" stroke="rgb(94, 94, 94)" stroke-width="5.00" stroke-opacity="1.00" stroke-linejoin="round"/>
<path d="M1384.87,1039.08" fill="none" stroke="rgb(94, 94, 94)" stroke-width="5.00" stroke-opacity="1.00" stroke-linejoin="round"/>
<path d="M1384.87,1039.08 L1442.17,1026.43" fill="none" stroke="rgb(94, 94, 94)" stroke-width="5.00" stroke-opacity="1.00" stroke-linejoin="round"/>
<path d="M1442.17,1026.43" fill="none" stroke="rgb(94, 94, 94)" stroke-width="5.00" stroke-opacity="1.00" stroke-linejoin="round"/>
<path d="M1442.17,1026.43 L1405.80,1025.79" fill="none" stroke="rgb(94, 94, 94)" stroke-width="5.00" stroke-opacity="1.00" stroke-linejoin="round"/>
<path d="M1405.80,1025.79" fill="none" stroke="rgb(94, 94, 94)" stroke-width="5.00" stroke-opacity="1.00" stroke-linejoin="round"/>
<path d="M1405.80,1025.79 L1419.90,1029.37" fill="none" stroke="rgb(94, 94, 94)" stroke-width="5.00" stroke-opacity="1.00" stroke-linejoin="round"/>
<path d="M1419.90,1029.37" fill="none" stroke="rgb(94, 94, 94)" stroke-width="5.00" stroke-opacity="1.00" stroke-linejoin="round"/>
<path d="M1306.50,985.06" fill="none" stroke="rgb(94, 94, 94)" stroke-width="5.00" stroke-opacity="1.00" stroke-linejoin="round"/>
<path d="M1306.50,985.06 L1429.25,926.14" fill="none" stroke="rgb(94, 94, 94)" stroke-width="5.00" stroke-opacity="1.00" stroke-linejoin="round"/>
<path d="M1429.25,926.14" fill="none" stroke="rgb(94, 94, 94)" stroke-width="5.00" stroke-opacity="1.00" stroke-linejoin="round"/>
<path d="M1316.42,987.99" fill="none" stroke="rgb(94, 94, 94)" stroke-width="5.00" stroke-opacity="1.00" stroke-linejoin="round"/>
<path d="M1316.42,987.99 L1351.84,998.73" fill="none" stroke="rgb(94, 94, 94)" stroke-width="5.00" stroke-opacity="1.00" stroke-linejoin="round"/>
<path d="M1351.84,998.73" fill="none" stroke="rgb(94, 94, 94)" stroke-width="5.00" stroke-opacity="1.00" stroke-linejoin="round"/>
<path d="M1314.09,984.75 C1314.09,984.75 1314.34,984.79 1314.34,984.79" fill="none" stroke="rgb(94, 94, 94)" stroke-width="7.00" stroke-opacity="1.00" stroke-linejoin="round"/>
<path d="M1314.34,984.79 L1427.33,931.54" fill="none" stroke="rgb(94, 94, 94)" stroke-width="7.00" stroke-opacity="1.00" stroke-linejoin="round"/>
<path d="M1427.33,931.54" fill="none" stroke="rgb(94, 94, 94)" stroke-width="7.00" stroke-opacity="1.00" stroke-linejoin="round"/>
<path d="M1427.33,931.54 L1318.69,986.80" fill="none" stroke="rgb(94, 94, 94)" stroke-width="7.00" stroke-opacity="1.00" stroke-linejoin="round"/>
<path d="M1318.69,986.80" fill="none" stroke="rgb(94, 94, 94)" stroke-width="7.00" stroke-opacity="1.00" stroke-linejoin="round"/>
<path d="M1318.69,986.80 L1432.32,936.00" fill="none" stroke="rgb(94, 94, 94)" stroke-width="7.00" stroke-opacity="1.00" stroke-linejoin="round"/>
<path d="M1432.32,936.00" fill="none" stroke="rgb(94, 94, 94)" stroke-width="7.00" stroke-opacity="1.00" stroke-linejoin="round"/>
<path d="M1432.32,936.00 L1325.15,988.64" fill="none" stroke="rgb(94, 94, 94)" stroke-width="7.00" stroke-opacity="1.00" stroke-linejoin="round"/>
<path d="M1325.15,988.64" fill="none" stroke="rgb(94, 94, 94)" stroke-width="7.00" stroke-opacity="1.00" stroke-linejoin="round"/>
<path d="M1325.15,988.64 L1428.50,943.43" fill="none" stroke="rgb(94, 94, 94)" stroke-width="7.00" stroke-opacity="1.00" stroke-linejoin="round"/>
<path d="M1428.50,943.43" fill="none" stroke="rgb(94, 94, 94)" stroke-width="7.00" stroke-opacity="1.00" stroke-linejoin="round"/>
<path d="M1428.50,943.43 L1328.91,991.08" fill="none" stroke="rgb(94, 94, 94)" stroke-width="7.00" stroke-opacity="1.00" stroke-linejoin="round"/>
<path d="M1328.93,990.95 C1328.93,990.95 1329.50,990.65 1329.50,990.65" fill="none" stroke="rgb(94, 94, 94)" stroke-width="7.00" stroke-opacity="1.00" stroke-linejoin="round"/>
<path d="M1329.50,990.65 L1316.83,985.46" fill="none" stroke="rgb(94, 94, 94)" stroke-width="7.00" stroke-opacity="1.00" stroke-linejoin="round"/>
<path d="M1316.83,985.46" fill="none" stroke="rgb(94, 94, 94)" stroke-width="7.00" stroke-opacity="1.00" stroke-linejoin="round"/>
<path d="M1316.83,985.46 L1355.64,1000.92" fill="none" stroke="rgb(94, 94, 94)" stroke-width="7.00" stroke-opacity="1.00" stroke-linejoin="round"/>
<path d="M1355.64,1000.92" fill="none" stroke="rgb(94, 94, 94)" stroke-width="7.00" stroke-opacity="1.00" stroke-linejoin="round"/>
<path d="M1355.64,1000.92 L1405.74,980.79" fill="none" stroke="rgb(94, 94, 94)" stroke-width="7.00" stroke-opacity="1.00" stroke-linejoin="round"/>
<path d="M1405.74,980.79" fill="none" stroke="rgb(94, 94, 94)" stroke-width="7.00" stroke-opacity="1.00" stroke-linejoin="round"/>
<path d="M1319.25,988.19" fill="none" stroke="rgb(94, 94, 94)" stroke-width="7.00" stroke-opacity="1.00" stroke-linejoin="round"/>
<path d="M1319.25,988.19 L1358.14,1004.71" fill="none" stroke="rgb(94, 94, 94)" stroke-width="7.00" stroke-opacity="1.00" stroke-linejoin="round"/>
<path d="M1358.14,1004.71 C1358.14,1004.71 1358.39,1004.75 1358.39,1004.75" fill="none" stroke="rgb(94, 94, 94)" stroke-width="7.00" stroke-opacity="1.00" stroke-linejoin="round"/>
<path d="M1358.39,1004.75 L1323.92,1015.22" fill="none" stroke="rgb(94, 94, 94)" stroke-width="7.00" stroke-opacity="1.00" stroke-linejoin="round"/>
<path d="M1323.92,1015.22 C1323.92,1015.22 1323.83,1015.73 1323.83,1015.73" fill="none" stroke="rgb(94, 94, 94)" stroke-width="7.00" stroke-opacity="1.00" stroke-linejoin="round"/>
<path d="M1351.38,1001.52" fill="none" stroke="rgb(94, 94, 94)" stroke-width="7.00" stroke-opacity="1.00" stroke-linejoin="round"/>
<path d="M1351.38,1001.52 L1332.22,1013.72" fill="none" stroke="rgb(94, 94, 94)" stroke-width="7.00" stroke-opacity="1.00" stroke-linejoin="round"/>
<path d="M1332.22,1013.72" fill="none" stroke="rgb(94, 94, 94)" stroke-width="7.00" stroke-opacity="1.00" stroke-linejoin="round"/>
<path d="M1340.26,991.64" fill="none" stroke="rgb(94, 94, 94)" stroke-width="7.00" stroke-opacity="1.00" stroke-linejoin="round"/>
<path d="M1340.26,991.64 L1431.08,945.16" fill="none" stroke="rgb(94, 94, 94)" stroke-width="7.00" stroke-opacity="1.00" stroke-linejoin="round"/>
<path d="M1431.08,945.16" fill="none" stroke="rgb(94, 94, 94)" stroke-width="7.00" stroke-opacity="1.00" stroke-linejoin="round"/>
<path d="M1431.08,945.16 L1347.14,994.06" fill="none" stroke="rgb(94, 94, 94)" stroke-width="7.00" stroke-opacity="1.00" stroke-linejoin="round"/>
<path d="M1347.14,994.06" fill="none" stroke="rgb(94, 94, 94)" stroke-width="7.00" stroke-opacity="1.00" stroke-linejoin="round"/>
<path d="M1347.14,994.06 L1336.71,989.50" fill="none" stroke="rgb(94, 94, 94)" stroke-width="7.00" stroke-opacity="1.00" stroke-linejoin="round"/>
<path d="M1336.84,989.52 C1336.84,989.52 1337.93,989.18 1337.93,989.18 C1337.93,989.18 1338.36,988.98 1338.36,988.98" fill="none" stroke="rgb(94, 94, 94)" stroke-width="7.00" stroke-opacity="1.00" stroke-linejoin="round"/>
<path d="M1338.36,988.98 L1350.19,983.38" fill="none" stroke="rgb(94, 94, 94)" stroke-width="7.00" stroke-opacity="1.00" stroke-linejoin="round"/>
<path d="M1350.19,983.38 C1350.19,983.38 1350.45,983.43 1350.45,983.43" fill="none" stroke="rgb(94, 94, 94)" stroke-width="7.00" stroke-opacity="1.00" stroke-linejoin="round"/>
<path d="M1350.45,983.43 L1353.48,983.92" fill="none" stroke="rgb(94, 94, 94)" stroke-width="7.00" stroke-opacity="1.00" stroke-linejoin="round"/>
<path d="M1353.48,983.92 C1353.48,983.92 1353.21,984.01 1353.21,984.01 C1353.21,984.01 1352.60,986.12 1352.60,986.12" fill="none" stroke="rgb(94, 94, 94)" stroke-width="7.00" stroke-opacity="1.00" stroke-linejoin="round"/>
<path d="M1352.60,986.12 L1350.98,992.87" fill="none" stroke="rgb(94, 94, 94)" stroke-width="7.00" stroke-opacity="1.00" stroke-linejoin="round"/>
<path d="M1350.98,992.87 C1350.98,992.87 1351.48,992.96 1351.48,992.96" fill="none" stroke="rgb(94, 94, 94)" stroke-width="7.00" stroke-opacity="1.00" stroke-linejoin="round"/>
<path d="M1351.48,992.96 L1361.01,991.92" fill="none" stroke="rgb(94, 94, 94)" stroke-width="7.00" stroke-opacity="1.00" stroke-linejoin="round"/>
<path d="M1361.01,991.92" fill="none" stroke="rgb(94, 94, 94)" stroke-width="7.00" stroke-opacity="1.00" stroke-linejoin="round"/>
<path d="M1361.01,991.92 L1362.25,995.50" fill="none" stroke="rgb(94, 94, 94)" stroke-width="7.00" stroke-opacity="1.00" stroke-linejoin="round"/>
<path d="M1362.25,995.50 C1362.25,995.50 1362.71,994.27 1362.71,994.27" fill="none" stroke="rgb(94, 94, 94)" stroke-width="7.00" stroke-opacity="1.00" stroke-linejoin="round"/>
<path d="M1362.71,994.27 L1365.09,987.65" fill="none" stroke="rgb(94, 94, 94)" stroke-width="7.00" stroke-opacity="1.00" stroke-linejoin="round"/>
<path d="M1365.09,987.65" fill="none" stroke="rgb(94, 94, 94)" stroke-width="7.00" stroke-opacity="1.00" stroke-linejoin="round"/>
<path d="M1365.09,987.65 L1426.84,952.00" fill="none" stroke="rgb(94, 94, 94)" stroke-width="7.00" stroke-opacity="1.00" stroke-linejoin="round"/>
<path d="M1426.84,952.00" fill="none" stroke="rgb(94, 94, 94)" stroke-width="7.00" stroke-opacity="1.00" stroke-linejoin="round"/>
<path d="M1426.84,952.00 L1428.55,960.60" fill="none" stroke="rgb(94, 94, 94)" stroke-width="7.00" stroke-opacity="1.00" stroke-linejoin="round"/>
<path d="M1428.55,960.60 C1428.55,960.60 1427.28,961.18 1427.28,961.18 C1427.28,961.18 1424.75,962.32 1424.75,962.32 C1424.75,962.32 1423.11,962.83 1423.11,962.83 C1423.11,962.83 1421.47,963.34 1421.47,963.34 C1421.47,963.34 1420.41,963.43 1420.41,963.43 C1420.41,963.43 1418.64,963.92 1418.64,963.92" fill="none" stroke="rgb(94, 94, 94)" stroke-width="7.00" stroke-opacity="1.00" stroke-linejoin="round"/>
<path d="M1418.64,963.92 L1418.92,959.03" fill="none" stroke="rgb(94, 94, 94)" stroke-width="7.00" stroke-opacity="1.00" stroke-linejoin="round"/>
<path d="M1418.92,959.03" fill="none" stroke="rgb(94, 94, 94)" stroke-width="7.00" stroke-opacity="1.00" stroke-linejoin="round"/>
<path d="M1418.92,959.03 L1409.28,963.95" fill="none" stroke="rgb(94, 94, 94)" stroke-width="7.00" stroke-opacity="1.00" stroke-linejoin="round"/>
<path d="M1409.28,963.95 C1409.28,963.95 1409.24,964.20 1409.24,964.20" fill="none" stroke="rgb(94, 94, 94)" stroke-width="7.00" stroke-opacity="1.00" stroke-linejoin="round"/>
<path d="M1409.24,964.20 L1361.39,989.64" fill="none" stroke="rgb(94, 94, 94)" stroke-width="7.00" stroke-opacity="1.00" stroke-linejoin="round"/>
<path d="M1361.39,989.64" fill="none" stroke="rgb(94, 94, 94)" stroke-width="7.00" stroke-opacity="1.00" stroke-linejoin="round"/>
<path d="M1361.39,989.64 L1355.77,987.42" fill="none" stroke="rgb(94, 94, 94)" stroke-width="7.00" stroke-opacity="1.00" stroke-linejoin="round"/>
<path d="M1355.77,987.42" fill="none" stroke="rgb(94, 94, 94)" stroke-width="7.00" stroke-opacity="1.00" stroke-linejoin="round"/>
<path d="M1355.77,987.42 L1363.79,973.39" fill="none" stroke="rgb(94, 94, 94)" stroke-width="7.00" stroke-opacity="1.00" stroke-linejoin="round"/>
<path d="M1363.79,973.39" fill="none" stroke="rgb(94, 94, 94)" stroke-width="7.00" stroke-opacity="1.00" stroke-linejoin="round"/>
<path d="M1342.09,982.06" fill="none" stroke="rgb(94, 94, 94)" stroke-width="20.00" stroke-opacity="1.00" stroke-linejoin="round"/>
<path d="M1342.09,982.06 L1461.10,941.24" fill="none" stroke="rgb(94, 94, 94)" stroke-width="20.00" stroke-opacity="1.00" stroke-linejoin="round"/>
<path d="M1461.35,941.28" fill="none" stroke="rgb(94, 94, 94)" stroke-width="20.00" stroke-opacity="1.00" stroke-linejoin="round"/>
<path d="M1461.35,941.28 L1369.86,987.13" fill="none" stroke="rgb(94, 94, 94)" stroke-width="20.00" stroke-opacity="1.00" stroke-linejoin="round"/>
<path d="M1369.86,987.13" fill="none" stroke="rgb(94, 94, 94)" stroke-width="20.00" stroke-opacity="1.00" stroke-linejoin="round"/>
<path d="M1378.54,1009.11" fill="none" stroke="rgb(94, 94, 94)" stroke-width="20.00" stroke-opacity="1.00" stroke-linejoin="round"/>
<path d="M1431.75,1025.44" fill="none" stroke="rgb(94, 94, 94)" stroke-width="10.00" stroke-opacity="1.00" stroke-linejoin="round"/>
<path d="M1431.75,1025.44 L1374.14,1001.12" fill="none" stroke="rgb(94, 94, 94)" stroke-width="10.00" stroke-opacity="1.00" stroke-linejoin="round"/>
<path d="M1374.14,1001.12" fill="none" stroke="rgb(94, 94, 94)" stroke-width="10.00" stroke-opacity="1.00" stroke-linejoin="round"/>
<path d="M1374.14,1001.12 L1419.96,1023.51" fill="none" stroke="rgb(94, 94, 94)" stroke-width="10.00" stroke-opacity="1.00" stroke-linejoin="round"/>
<path d="M1419.96,1023.51" fill="none" stroke="rgb(94, 94, 94)" stroke-width="10.00" stroke-opacity="1.00" stroke-linejoin="round"/>
<path d="M1419.96,1023.51 L1416.21,1027.40" fill="none" stroke="rgb(94, 94, 94)" stroke-width="10.00" stroke-opacity="1.00" stroke-linejoin="round"/>
<path d="M1416.21,1027.40 C1416.21,1027.40 1415.87,1027.34 1415.87,1027.34" fill="none" stroke="rgb(94, 94, 94)" stroke-width="10.00" stroke-opacity="1.00" stroke-linejoin="round"/>
<path d="M1415.87,1027.34 L1349.55,1020.28" fill="none" stroke="rgb(94, 94, 94)" stroke-width="10.00" stroke-opacity="1.00" stroke-linejoin="round"/>
<path d="M1349.55,1020.28" fill="none" stroke="rgb(94, 94, 94)" stroke-width="10.00" stroke-opacity="1.00" stroke-linejoin="round"/>
<path d="M1242.93,1059.06" fill="none" stroke="rgb(94, 94, 94)" stroke-width="10.00" stroke-opacity="1.00" stroke-linejoin="round"/>
<path d="M1242.93,1059.06 L1186.89,1079.45" fill="none" stroke="rgb(94, 94, 94)" stroke-width="7.00" stroke-opacity="1.00" stroke-linejoin="round"/>
<path d="M1186.89,1079.45" fill="none" stroke="rgb(94, 94, 94)" stroke-width="7.00" stroke-opacity="1.00" stroke-linejoin="round"/>
<path d="M1186.89,1079.45 L1260.32,1062.38" fill="none" stroke="rgb(94, 94, 94)" stroke-width="7.00" stroke-opacity="1.00" stroke-linejoin="round"/>
<path d="M1260.32,1062.38" fill="none" stroke="rgb(94, 94, 94)" stroke-width="7.00" stroke-opacity="1.00" stroke-linejoin="round"/>
<path d="M1260.32,1062.38 L1230.11,1066.24" fill="none" stroke="rgb(94, 94, 94)" stroke-width="7.00" stroke-opacity="1.00" stroke-linejoin="round"/>
<path d="M1230.11,1066.24" fill="none" stroke="rgb(94, 94, 94)" stroke-width="7.00" stroke-opacity="1.00" stroke-linejoin="round"/>
<path d="M1230.11,1066.24 L1214.02,1071.31" fill="none" stroke="rgb(94, 94, 94)" stroke-width="7.00" stroke-opacity="1.00" stroke-linejoin="round"/>
<path d="M1214.02,1071.31 C1214.02,1071.31 1214.33,1071.36 1214.33,1071.36" fill="none" stroke="rgb(94, 94, 94)" stroke-width="7.00" stroke-opacity="1.00" stroke-linejoin="round"/>
<path d="M1214.33,1071.36 L1253.38,1055.74" fill="none" stroke="rgb(94, 94, 94)" stroke-width="7.00" stroke-opacity="1.00" stroke-linejoin="round"/>
<path d="M1253.38,1055.74" fill="none" stroke="rgb(94, 94, 94)" stroke-width="7.00" stroke-opacity="1.00" stroke-linejoin="round"/>
<path d="M1246.72,1054.18" fill="none" stroke="rgb(94, 94, 94)" stroke-width="7.00" stroke-opacity="1.00" stroke-linejoin="round"/>
<path d="M1246.72,1054.18 L1210.55,1070.43" fill="none" stroke="rgb(94, 94, 94)" stroke-width="7.00" stroke-opacity="1.00" stroke-linejoin="round"/>
<path d="M1210.55,1070.43" fill="none" stroke="rgb(94, 94, 94)" stroke-width="7.00" stroke-opacity="1.00" stroke-linejoin="round"/>
<path d="M1210.55,1070.43 L1261.65,1055.21" fill="none" stroke="rgb(94, 94, 94)" stroke-width="7.00" stroke-opacity="1.00" stroke-linejoin="round"/>
<path d="M1261.65,1055.21" fill="none" stroke="rgb(94, 94, 94)" stroke-width="7.00" stroke-opacity="1.00" stroke-linejoin="round"/>
<path d="M1186.61,1080.19 C1186.61,1080.19 1186.08,1080.11 1186.08,1080.11 C1186.08,1080.11 1184.78,1080.37 1184.78,1080.37 C1184.78,1080.37 1182.66,1080.80 1182.66,1080.80 C1182.66,1080.80 1181.67,1081.11 1181.67,1081.11 C1181.67,1081.11 1179.93,1082.09 1179.93,1082.09 C1179.93,1082.09 1178.61,1082.50 1178.61,1082.50 C1178.61,1082.50 1179.93,1082.09 1179.93,1082.09 C1179.93,1082.09 1183.32,1080.60 1183.32,1080.60 C1183.32,1080.60 1185.16,1079.96 1185.16,1079.96 C1185.16,1079.96 1186.82,1079.44 1186.82,1079.44 C1186.82,1079.44 1188.32,1078.90 1188.32,1078.90 C1188.32,1078.90 1186.97,1079.47 1186.97,1079.47 C1186.97,1079.47 1185.93,1080.08 1185.93,1080.08 C1185.93,1080.08 1184.22,1080.90 1184.22,1080.90 C1184.22,1080.90 1182.18,1081.83 1182.18,1081.83 C1182.18,1081.83 1181.16,1082.29 1181.16,1082.29 C1181.16,1082.29 1180.16,1082.60 1180.16,1082.60 C1180.16,1082.60 1179.02,1082.88 1179.02,1082.88 C1179.02,1082.88 1177.87,1083.17 1177.87,1083.17 C1177.87,1083.17 1180.47,1082.65 1180.47,1082.65 C1180.47,1082.65 1187.03,1081.99 1187.03,1081.99 C1187.03,1081.99 1188.99,1081.53 1188.99,1081.53 C1188.99,1081.53 1190.89,1080.97 1190.89,1080.97 C1190.89,1080.97 1189.63,1081.47 1189.63,1081.47 C1189.63,1081.47 1187.36,1081.89 1187.36,1081.89 C1187.36,1081.89 1184.22,1082.79 1184.22,1082.79 C1184.22,1082.79 1182.95,1082.90 1182.95,1082.90 C1182.95,1082.90 1181.82,1083.03 1181.82,1083.03 C1181.82,1083.03 1180.06,1083.21 1180.06,1083.21 C1180.06,1083.21 1183.36,1081.31 1183.36,1081.31 C1183.36,1081.31 1184.57,1080.65 1184.57,1080.65 C1184.57,1080.65 1187.68,1078.95 1187.68,1078.95 C1187.68,1078.95 1187.76,1078.97 1187.76,1078.97" fill="none" stroke="rgb(94, 94, 94)" stroke-width="3.00" stroke-opacity="1.00" stroke-linejoin="round"/>
<path d="M1172.50,1079.61 C1172.50,1079.61 1172.73,1079.65 1172.73,1079.65" fill="none" stroke="rgb(255, 255, 255)" stroke-width="3.00" stroke-opacity="1.00" stroke-linejoin="round"/>
<path d="M1172.73,1079.65 L1280.31,1031.64" fill="none" stroke="rgb(255, 255, 255)" stroke-width="3.00" stroke-opacity="1.00" stroke-linejoin="round"/>
<path d="M1280.31,1031.64" fill="none" stroke="rgb(255, 255, 255)" stroke-width="3.00" stroke-opacity="1.00" stroke-linejoin="round"/>
<path d="M1236.65,1052.13" fill="none" stroke="rgb(255, 255, 255)" stroke-width="3.00" stroke-opacity="1.00" stroke-linejoin="round"/>
<path d="M1236.65,1052.13 L1269.31,1036.98" fill="none" stroke="rgb(255, 255, 255)" stroke-width="3.00" stroke-opacity="1.00" stroke-linejoin="round"/>
<path d="M1269.31,1036.98" fill="none" stroke="rgb(255, 255, 255)" stroke-width="3.00" stroke-opacity="1.00" stroke-linejoin="round"/>
<path d="M1419.68,935.87" fill="none" stroke="rgb(94, 94, 94)" stroke-width="3.00" stroke-opacity="1.00" stroke-linejoin="round"/>
<path d="M1419.68,935.87 L1373.07,958.87" fill="none" stroke="rgb(94, 94, 94)" stroke-width="3.00" stroke-opacity="1.00" stroke-linejoin="round"/>
<path d="M1373.07,958.87 C1373.07,958.87 1373.52,958.94 1373.52,958.94" fill="none" stroke="rgb(94, 94, 94)" stroke-width="3.00" stroke-opacity="1.00" stroke-linejoin="round"/>
<path d="M1373.52,958.94 L1365.53,959.93" fill="none" stroke="rgb(94, 94, 94)" stroke-width="3.00" stroke-opacity="1.00" stroke-linejoin="round"/>
<path d="M1365.53,959.93" fill="none" stroke="rgb(94, 94, 94)" stroke-width="3.00" stroke-opacity="1.00" stroke-linejoin="round"/>
<path d="M1365.53,959.93 L1413.29,935.52" fill="none" stroke="rgb(94, 94, 94)" stroke-width="3.00" stroke-opacity="1.00" stroke-linejoin="round"/>
<path d="M1413.29,935.52" fill="none" stroke="rgb(94, 94, 94)" stroke-width="3.00" stroke-opacity="1.00" stroke-linejoin="round"/>
<path d="M1402.64,935.84" fill="none" stroke="rgb(255, 255, 255)" stroke-width="3.00" stroke-opacity="1.00" stroke-linejoin="round"/>
<path d="M1402.64,935.84 L1458.13,909.24" fill="none" stroke="rgb(255, 255, 255)" stroke-width="3.00" stroke-opacity="1.00" stroke-linejoin="round"/>
<path d="M1458.13,909.24" fill="none" stroke="rgb(255, 255, 255)" stroke-width="3.00" stroke-opacity="1.00" stroke-linejoin="round"/>
<path d="M1676.99,798.77" fill="none" stroke="rgb(255, 255, 255)" stroke-width="3.00" stroke-opacity="1.00" stroke-linejoin="round"/>
<path d="M1676.99,798.77 L1664.46,985.15" fill="none" stroke="rgb(255, 255, 255)" stroke-width="3.00" stroke-opacity="1.00" stroke-linejoin="round"/>
<path d="M1664.46,985.15" fill="none" stroke="rgb(255, 255, 255)" stroke-width="3.00" stroke-opacity="1.00" stroke-linejoin="round"/>
<path d="M1307.00,984.00" fill="none" stroke="rgb(94, 94, 94)" stroke-width="7.00" stroke-opacity="0.90" stroke-linejoin="round"/>
<path d="M1307.00,984.00 L2027.00,643.00" fill="none" stroke="rgb(94, 94, 94)" stroke-width="7.00" stroke-opacity="0.90" stroke-linejoin="round"/>
<path d="M2027.00,643.00" fill="none" stroke="rgb(94, 94, 94)" stroke-width="7.00" stroke-opacity="0.90" stroke-linejoin="round"/>
<path d="M1387.00,996.00" fill="none" stroke="rgb(94, 94, 94)" stroke-width="7.00" stroke-opacity="0.90" stroke-linejoin="round"/>
<path d="M1387.00,996.00 L2124.00,728.00" fill="none" stroke="rgb(94, 94, 94)" stroke-width="7.00" stroke-opacity="0.90" stroke-linejoin="round"/>
<path d="M2124.00,728.00" fill="none" stroke="rgb(94, 94, 94)" stroke-width="7.00" stroke-opacity="0.90" stroke-linejoin="round"/>
<path d="M1656.00,872.67" fill="none" stroke="rgb(94, 94, 94)" stroke-width="50.00" stroke-opacity="0.90" stroke-linejoin="round"/>
<path d="M1656.00,872.67 L2018.67,738.00" fill="none" stroke="rgb(94, 94, 94)" stroke-width="50.00" stroke-opacity="0.90" stroke-linejoin="round"/>
<path d="M2018.67,738.00" fill="none" stroke="rgb(94, 94, 94)" stroke-width="50.00" stroke-opacity="0.90" stroke-linejoin="round"/>
<path d="M2018.67,738.00 L1586.00,892.00" fill="none" stroke="rgb(94, 94, 94)" stroke-width="50.00" stroke-opacity="0.90" stroke-linejoin="round"/>
<path d="M1586.00,892.00" fill="none" stroke="rgb(94, 94, 94)" stroke-width="50.00" stroke-opacity="0.90" stroke-linejoin="round"/>
<path d="M1586.00,892.00 L1998.67,708.00" fill="none" stroke="rgb(94, 94, 94)" stroke-width="50.00" stroke-opacity="0.90" stroke-linejoin="round"/>
<path d="M1998.67,708.00" fill="none" stroke="rgb(94, 94, 94)" stroke-width="50.00" stroke-opacity="0.90" stroke-linejoin="round"/>
<path d="M1998.67,708.00 L1666.67,842.67" fill="none" stroke="rgb(94, 94, 94)" stroke-width="50.00" stroke-opacity="0.90" stroke-linejoin="round"/>
<path d="M1666.67,842.67" fill="none" stroke="rgb(94, 94, 94)" stroke-width="50.00" stroke-opacity="0.90" stroke-linejoin="round"/>
<path d="M1656.00,847.33" fill="none" stroke="rgb(94, 94, 94)" stroke-width="50.00" stroke-opacity="0.90" stroke-linejoin="round"/>
<path d="M1656.00,847.33 L2000.67,687.33" fill="none" stroke="rgb(94, 94, 94)" stroke-width="50.00" stroke-opacity="0.90" stroke-linejoin="round"/>
<path d="M2000.67,687.33" fill="none" stroke="rgb(94, 94, 94)" stroke-width="50.00" stroke-opacity="0.90" stroke-linejoin="round"/>
<path d="M2000.67,687.33 L1634.67,857.33" fill="none" stroke="rgb(94, 94, 94)" stroke-width="50.00" stroke-opacity="0.90" stroke-linejoin="round"/>
<path d="M1634.67,857.33" fill="none" stroke="rgb(94, 94, 94)" stroke-width="50.00" stroke-opacity="0.90" stroke-linejoin="round"/>
<path d="M1634.67,857.33 L2020.67,672.67" fill="none" stroke="rgb(94, 94, 94)" stroke-width="50.00" stroke-opacity="0.90" stroke-linejoin="round"/>
<path d="M2020.67,672.67" fill="none" stroke="rgb(94, 94, 94)" stroke-width="50.00" stroke-opacity="0.90" stroke-linejoin="round"/>
<path d="M1665.00,812.50" fill="none" stroke="rgb(94, 94, 94)" stroke-width="5.00" stroke-opacity="1.00" stroke-linejoin="round"/>
<path d="M1665.00,812.50 L1971.50,671.50" fill="none" stroke="rgb(94, 94, 94)" stroke-width="5.00" stroke-opacity="1.00" stroke-linejoin="round"/>
<path d="M1971.50,671.50" fill="none" stroke="rgb(94, 94, 94)" stroke-width="5.00" stroke-opacity="1.00" stroke-linejoin="round"/>
<path d="M1971.50,671.50 L1662.00,815.00" fill="none" stroke="rgb(94, 94, 94)" stroke-width="5.00" stroke-opacity="1.00" stroke-linejoin="round"/>
<path d="M1662.00,815.00" fill="none" stroke="rgb(94, 94, 94)" stroke-width="5.00" stroke-opacity="1.00" stroke-linejoin="round"/>
<path d="M1655.00,900.00" fill="none" stroke="rgb(94, 94, 94)" stroke-width="5.00" stroke-opacity="1.00" stroke-linejoin="round"/>
<path d="M1655.00,900.00 L1984.00,768.00" fill="none" stroke="rgb(94, 94, 94)" stroke-width="5.00" stroke-opacity="1.00" stroke-linejoin="round"/>
<path d="M1984.00,768.00" fill="none" stroke="rgb(94, 94, 94)" stroke-width="5.00" stroke-opacity="1.00" stroke-linejoin="round"/>
<path d="M1396.95,997.75" fill="none" stroke="rgb(255, 255, 255)" stroke-width="5.00" stroke-opacity="1.00" stroke-linejoin="round"/>
<path d="M1396.95,997.75 L1969.45,785.88" fill="none" stroke="rgb(255, 255, 255)" stroke-width="5.00" stroke-opacity="1.00" stroke-linejoin="round"/>
<path d="M1969.45,785.88" fill="none" stroke="rgb(255, 255, 255)" stroke-width="5.00" stroke-opacity="1.00" stroke-linejoin="round"/>
<path d="M1669.28,885.87" fill="none" stroke="rgb(94, 94, 94)" stroke-width="10.00" stroke-opacity="1.00" stroke-linejoin="round"/>
<path d="M1669.28,885.87 L1754.32,856.50" fill="none" stroke="rgb(94, 94, 94)" stroke-width="10.00" stroke-opacity="1.00" stroke-linejoin="round"/>
<path d="M1754.32,856.50" fill="none" stroke="rgb(94, 94, 94)" stroke-width="10.00" stroke-opacity="1.00" stroke-linejoin="round"/>
</g>
</svg>
